<svg xmlns="http://www.w3.org/2000/svg" xmlns:xlink="http://www.w3.org/1999/xlink" width="500" zoomAndPan="magnify" viewBox="0 0 375 374.999991" height="500" preserveAspectRatio="xMidYMid meet" version="1.0"><defs><g/><clipPath id="id1"><path d="M 0 100.132812 L 177 100.132812 L 177 274.882812 L 0 274.882812 Z M 0 100.132812 " clip-rule="nonzero"/></clipPath><clipPath id="id2"><path d="M 99 100.132812 L 276 100.132812 L 276 274.882812 L 99 274.882812 Z M 99 100.132812 " clip-rule="nonzero"/></clipPath><clipPath id="id3"><path d="M 197.996094 100.132812 L 374.996094 100.132812 L 374.996094 274.882812 L 197.996094 274.882812 Z M 197.996094 100.132812 " clip-rule="nonzero"/></clipPath></defs><g clip-path="url(#id1)"><path fill="#ad795b" d="M 88.5 100.132812 C 39.621094 100.132812 0 139.253906 0 187.507812 C 0 235.765625 39.621094 274.882812 88.5 274.882812 C 137.378906 274.882812 177 235.765625 177 187.507812 C 177 139.253906 137.378906 100.132812 88.5 100.132812 " fill-opacity="1" fill-rule="nonzero"/></g><g clip-path="url(#id2)"><path fill="#6d412a" d="M 187.5 100.132812 C 138.621094 100.132812 99 139.253906 99 187.507812 C 99 235.765625 138.621094 274.882812 187.5 274.882812 C 236.375 274.882812 275.996094 235.765625 275.996094 187.507812 C 275.996094 139.253906 236.375 100.132812 187.5 100.132812 " fill-opacity="1" fill-rule="nonzero"/></g><g clip-path="url(#id3)"><path fill="#3c2115" d="M 286.496094 100.132812 C 237.621094 100.132812 197.996094 139.253906 197.996094 187.507812 C 197.996094 235.765625 237.621094 274.882812 286.496094 274.882812 C 335.375 274.882812 374.996094 235.765625 374.996094 187.507812 C 374.996094 139.253906 335.375 100.132812 286.496094 100.132812 " fill-opacity="1" fill-rule="nonzero"/></g><path fill="#ffde59" d="M 35.75 240.453125 C 35.75 240.15625 35.722656 239.863281 35.664062 239.574219 C 35.605469 239.285156 35.519531 239.003906 35.40625 238.734375 C 35.292969 238.460938 35.15625 238.203125 34.992188 237.957031 C 34.828125 237.710938 34.640625 237.484375 34.433594 237.277344 C 34.222656 237.066406 33.996094 236.882812 33.75 236.71875 C 33.503906 236.554688 33.246094 236.417969 32.972656 236.304688 C 32.699219 236.191406 32.417969 236.105469 32.128906 236.046875 C 31.839844 235.988281 31.546875 235.960938 31.25 235.960938 C 30.953125 235.960938 30.664062 235.988281 30.371094 236.046875 C 30.082031 236.105469 29.800781 236.191406 29.527344 236.304688 C 29.253906 236.417969 28.996094 236.554688 28.75 236.71875 C 28.503906 236.882812 28.277344 237.066406 28.066406 237.277344 C 27.859375 237.484375 27.671875 237.710938 27.507812 237.957031 C 27.34375 238.203125 27.207031 238.460938 27.09375 238.734375 C 26.980469 239.003906 26.894531 239.285156 26.835938 239.574219 C 26.777344 239.863281 26.75 240.15625 26.75 240.453125 C 26.75 240.746094 26.777344 241.039062 26.835938 241.328125 C 26.894531 241.617188 26.980469 241.898438 27.09375 242.171875 C 27.207031 242.441406 27.34375 242.703125 27.507812 242.945312 C 27.671875 243.191406 27.859375 243.417969 28.066406 243.628906 C 28.277344 243.835938 28.503906 244.023438 28.75 244.183594 C 28.996094 244.347656 29.253906 244.488281 29.527344 244.601562 C 29.800781 244.714844 30.082031 244.796875 30.371094 244.855469 C 30.664062 244.914062 30.953125 244.941406 31.25 244.941406 C 31.546875 244.941406 31.839844 244.914062 32.128906 244.855469 C 32.417969 244.796875 32.699219 244.714844 32.972656 244.601562 C 33.246094 244.488281 33.503906 244.347656 33.75 244.183594 C 33.996094 244.023438 34.222656 243.835938 34.433594 243.628906 C 34.640625 243.417969 34.828125 243.191406 34.992188 242.945312 C 35.15625 242.703125 35.292969 242.441406 35.40625 242.171875 C 35.519531 241.898438 35.605469 241.617188 35.664062 241.328125 C 35.722656 241.039062 35.75 240.746094 35.75 240.453125 Z M 30.378906 239.742188 C 30.285156 239.859375 30.214844 239.988281 30.171875 240.128906 C 30.128906 240.273438 30.117188 240.417969 30.132812 240.566406 C 30.148438 240.714844 30.191406 240.851562 30.261719 240.984375 C 30.332031 241.113281 30.425781 241.226562 30.542969 241.320312 C 30.65625 241.414062 30.785156 241.484375 30.929688 241.527344 C 31.070312 241.570312 31.21875 241.582031 31.363281 241.566406 C 31.511719 241.550781 31.652344 241.507812 31.785156 241.4375 C 31.914062 241.367188 32.027344 241.277344 32.121094 241.160156 L 94.621094 164.546875 C 94.714844 164.433594 94.785156 164.304688 94.828125 164.160156 C 94.871094 164.019531 94.882812 163.875 94.867188 163.726562 C 94.851562 163.578125 94.808594 163.4375 94.738281 163.308594 C 94.667969 163.175781 94.574219 163.066406 94.457031 162.96875 C 94.34375 162.875 94.214844 162.808594 94.070312 162.765625 C 93.929688 162.722656 93.785156 162.710938 93.636719 162.722656 C 93.488281 162.738281 93.347656 162.78125 93.214844 162.851562 C 93.085938 162.921875 92.972656 163.015625 92.878906 163.128906 Z M 30.378906 239.742188 " fill-opacity="1" fill-rule="nonzero"/><path fill="#ffde59" d="M 98.25 163.839844 C 98.25 163.542969 98.222656 163.253906 98.164062 162.964844 C 98.105469 162.675781 98.019531 162.394531 97.90625 162.121094 C 97.792969 161.847656 97.65625 161.589844 97.492188 161.34375 C 97.328125 161.097656 97.140625 160.871094 96.933594 160.664062 C 96.722656 160.457031 96.496094 160.269531 96.25 160.105469 C 96.003906 159.941406 95.746094 159.804688 95.472656 159.691406 C 95.199219 159.578125 94.917969 159.492188 94.628906 159.433594 C 94.339844 159.378906 94.046875 159.347656 93.75 159.347656 C 93.453125 159.347656 93.160156 159.378906 92.871094 159.433594 C 92.582031 159.492188 92.300781 159.578125 92.027344 159.691406 C 91.753906 159.804688 91.496094 159.941406 91.25 160.105469 C 91.003906 160.269531 90.777344 160.457031 90.566406 160.664062 C 90.359375 160.871094 90.171875 161.097656 90.007812 161.34375 C 89.84375 161.589844 89.707031 161.847656 89.59375 162.121094 C 89.480469 162.394531 89.394531 162.675781 89.335938 162.964844 C 89.277344 163.253906 89.25 163.542969 89.25 163.839844 C 89.25 164.132812 89.277344 164.425781 89.335938 164.714844 C 89.394531 165.003906 89.480469 165.285156 89.59375 165.558594 C 89.707031 165.832031 89.84375 166.089844 90.007812 166.335938 C 90.171875 166.578125 90.359375 166.804688 90.566406 167.015625 C 90.777344 167.222656 91.003906 167.410156 91.25 167.574219 C 91.496094 167.738281 91.753906 167.875 92.027344 167.988281 C 92.300781 168.101562 92.582031 168.1875 92.871094 168.242188 C 93.160156 168.300781 93.453125 168.328125 93.75 168.328125 C 94.046875 168.328125 94.339844 168.300781 94.628906 168.242188 C 94.917969 168.1875 95.199219 168.101562 95.472656 167.988281 C 95.746094 167.875 96.003906 167.738281 96.25 167.574219 C 96.496094 167.410156 96.722656 167.222656 96.933594 167.015625 C 97.140625 166.804688 97.328125 166.578125 97.492188 166.335938 C 97.65625 166.089844 97.792969 165.832031 97.90625 165.558594 C 98.019531 165.285156 98.105469 165.003906 98.164062 164.714844 C 98.222656 164.425781 98.25 164.132812 98.25 163.839844 Z M 94.425781 162.941406 C 94.304688 162.851562 94.175781 162.789062 94.03125 162.753906 C 93.886719 162.714844 93.738281 162.707031 93.59375 162.730469 C 93.445312 162.75 93.308594 162.796875 93.179688 162.875 C 93.050781 162.949219 92.941406 163.046875 92.851562 163.167969 C 92.761719 163.285156 92.699219 163.417969 92.664062 163.5625 C 92.625 163.703125 92.617188 163.851562 92.636719 163.996094 C 92.660156 164.144531 92.707031 164.28125 92.78125 164.410156 C 92.859375 164.539062 92.957031 164.648438 93.074219 164.738281 L 155.574219 211.554688 C 155.695312 211.644531 155.824219 211.707031 155.96875 211.746094 C 156.113281 211.78125 156.261719 211.789062 156.410156 211.769531 C 156.554688 211.75 156.695312 211.699219 156.824219 211.625 C 156.953125 211.546875 157.058594 211.449219 157.148438 211.332031 C 157.238281 211.214844 157.300781 211.082031 157.339844 210.9375 C 157.375 210.792969 157.386719 210.648438 157.363281 210.5 C 157.34375 210.351562 157.292969 210.214844 157.21875 210.085938 C 157.140625 209.957031 157.042969 209.851562 156.925781 209.761719 Z M 94.425781 162.941406 " fill-opacity="1" fill-rule="nonzero"/><path fill="#ffde59" d="M 160.75 210.65625 C 160.75 210.363281 160.722656 210.070312 160.664062 209.78125 C 160.605469 209.492188 160.519531 209.210938 160.40625 208.941406 C 160.292969 208.667969 160.15625 208.410156 159.992188 208.164062 C 159.828125 207.917969 159.640625 207.691406 159.433594 207.484375 C 159.222656 207.273438 158.996094 207.089844 158.75 206.925781 C 158.503906 206.761719 158.246094 206.621094 157.972656 206.507812 C 157.699219 206.398438 157.417969 206.3125 157.128906 206.253906 C 156.839844 206.195312 156.546875 206.167969 156.25 206.167969 C 155.953125 206.167969 155.660156 206.195312 155.371094 206.253906 C 155.082031 206.3125 154.800781 206.398438 154.527344 206.507812 C 154.253906 206.621094 153.996094 206.761719 153.75 206.925781 C 153.503906 207.089844 153.277344 207.273438 153.066406 207.484375 C 152.859375 207.691406 152.671875 207.917969 152.507812 208.164062 C 152.34375 208.410156 152.207031 208.667969 152.09375 208.941406 C 151.980469 209.210938 151.894531 209.492188 151.835938 209.78125 C 151.777344 210.070312 151.75 210.363281 151.75 210.65625 C 151.75 210.953125 151.777344 211.246094 151.835938 211.535156 C 151.894531 211.824219 151.980469 212.105469 152.09375 212.375 C 152.207031 212.648438 152.34375 212.90625 152.507812 213.152344 C 152.671875 213.398438 152.859375 213.625 153.066406 213.832031 C 153.277344 214.042969 153.503906 214.226562 153.75 214.390625 C 153.996094 214.554688 154.253906 214.695312 154.527344 214.808594 C 154.800781 214.917969 155.082031 215.003906 155.371094 215.0625 C 155.660156 215.121094 155.953125 215.148438 156.25 215.148438 C 156.546875 215.148438 156.839844 215.121094 157.128906 215.0625 C 157.417969 215.003906 157.699219 214.917969 157.972656 214.808594 C 158.246094 214.695312 158.503906 214.554688 158.75 214.390625 C 158.996094 214.226562 159.222656 214.042969 159.433594 213.832031 C 159.640625 213.625 159.828125 213.398438 159.992188 213.152344 C 160.15625 212.90625 160.292969 212.648438 160.40625 212.375 C 160.519531 212.105469 160.605469 211.824219 160.664062 211.535156 C 160.722656 211.246094 160.75 210.953125 160.75 210.65625 Z M 155.421875 209.898438 C 155.320312 210.011719 155.246094 210.132812 155.195312 210.273438 C 155.144531 210.414062 155.121094 210.558594 155.128906 210.707031 C 155.136719 210.855469 155.167969 210.996094 155.234375 211.132812 C 155.296875 211.265625 155.382812 211.382812 155.492188 211.484375 C 155.601562 211.585938 155.726562 211.660156 155.867188 211.710938 C 156.007812 211.761719 156.152344 211.785156 156.300781 211.777344 C 156.449219 211.769531 156.589844 211.738281 156.726562 211.675781 C 156.859375 211.613281 156.980469 211.527344 157.078125 211.417969 L 219.578125 143.316406 C 219.679688 143.207031 219.757812 143.082031 219.808594 142.941406 C 219.859375 142.800781 219.878906 142.65625 219.875 142.507812 C 219.867188 142.359375 219.832031 142.21875 219.769531 142.082031 C 219.707031 141.949219 219.621094 141.832031 219.507812 141.730469 C 219.398438 141.628906 219.273438 141.554688 219.132812 141.503906 C 218.996094 141.453125 218.847656 141.429688 218.699219 141.4375 C 218.550781 141.441406 218.410156 141.476562 218.273438 141.539062 C 218.140625 141.605469 218.019531 141.691406 217.921875 141.800781 Z M 155.421875 209.898438 " fill-opacity="1" fill-rule="nonzero"/><path fill="#ffde59" d="M 223.25 142.558594 C 223.25 142.261719 223.222656 141.972656 223.164062 141.683594 C 223.105469 141.394531 223.019531 141.113281 222.90625 140.839844 C 222.792969 140.566406 222.65625 140.308594 222.492188 140.0625 C 222.328125 139.816406 222.140625 139.589844 221.933594 139.382812 C 221.722656 139.175781 221.496094 138.988281 221.25 138.824219 C 221.003906 138.660156 220.746094 138.523438 220.472656 138.410156 C 220.199219 138.296875 219.917969 138.210938 219.628906 138.152344 C 219.339844 138.097656 219.046875 138.066406 218.75 138.066406 C 218.453125 138.066406 218.160156 138.097656 217.871094 138.152344 C 217.582031 138.210938 217.300781 138.296875 217.027344 138.410156 C 216.753906 138.523438 216.496094 138.660156 216.25 138.824219 C 216.003906 138.988281 215.777344 139.175781 215.566406 139.382812 C 215.359375 139.589844 215.171875 139.816406 215.007812 140.0625 C 214.84375 140.308594 214.707031 140.566406 214.59375 140.839844 C 214.480469 141.113281 214.394531 141.394531 214.335938 141.683594 C 214.277344 141.972656 214.25 142.261719 214.25 142.558594 C 214.25 142.851562 214.277344 143.144531 214.335938 143.433594 C 214.394531 143.722656 214.480469 144.003906 214.59375 144.277344 C 214.707031 144.550781 214.84375 144.808594 215.007812 145.054688 C 215.171875 145.296875 215.359375 145.523438 215.566406 145.734375 C 215.777344 145.941406 216.003906 146.128906 216.25 146.292969 C 216.496094 146.457031 216.753906 146.59375 217.027344 146.707031 C 217.300781 146.820312 217.582031 146.90625 217.871094 146.960938 C 218.160156 147.019531 218.453125 147.046875 218.75 147.046875 C 219.046875 147.046875 219.339844 147.019531 219.628906 146.960938 C 219.917969 146.90625 220.199219 146.820312 220.472656 146.707031 C 220.746094 146.59375 221.003906 146.457031 221.25 146.292969 C 221.496094 146.128906 221.722656 145.941406 221.933594 145.734375 C 222.140625 145.523438 222.328125 145.296875 222.492188 145.054688 C 222.65625 144.808594 222.792969 144.550781 222.90625 144.277344 C 223.019531 144.003906 223.105469 143.722656 223.164062 143.433594 C 223.222656 143.144531 223.25 142.851562 223.25 142.558594 Z M 219.113281 141.496094 C 218.972656 141.449219 218.828125 141.429688 218.679688 141.4375 C 218.527344 141.449219 218.386719 141.484375 218.253906 141.550781 C 218.121094 141.617188 218.003906 141.703125 217.90625 141.816406 C 217.808594 141.929688 217.734375 142.054688 217.683594 142.195312 C 217.636719 142.335938 217.617188 142.480469 217.628906 142.628906 C 217.636719 142.777344 217.675781 142.917969 217.738281 143.054688 C 217.804688 143.1875 217.894531 143.300781 218.007812 143.402344 C 218.117188 143.5 218.246094 143.574219 218.386719 143.621094 L 280.886719 164.902344 C 281.027344 164.949219 281.171875 164.96875 281.320312 164.957031 C 281.46875 164.949219 281.609375 164.910156 281.746094 164.847656 C 281.878906 164.78125 281.996094 164.691406 282.09375 164.578125 C 282.191406 164.46875 282.265625 164.34375 282.3125 164.203125 C 282.359375 164.058594 282.378906 163.914062 282.371094 163.765625 C 282.359375 163.621094 282.324219 163.476562 282.257812 163.34375 C 282.191406 163.210938 282.105469 163.09375 281.992188 162.996094 C 281.878906 162.898438 281.753906 162.824219 281.613281 162.777344 Z M 219.113281 141.496094 " fill-opacity="1" fill-rule="nonzero"/><path fill="#ffde59" d="M 285.75 163.839844 C 285.75 163.542969 285.722656 163.253906 285.664062 162.964844 C 285.605469 162.675781 285.519531 162.394531 285.40625 162.121094 C 285.292969 161.847656 285.15625 161.589844 284.992188 161.34375 C 284.828125 161.097656 284.640625 160.871094 284.433594 160.664062 C 284.222656 160.457031 283.996094 160.269531 283.75 160.105469 C 283.503906 159.941406 283.246094 159.804688 282.972656 159.691406 C 282.699219 159.578125 282.417969 159.492188 282.128906 159.433594 C 281.839844 159.378906 281.546875 159.347656 281.25 159.347656 C 280.953125 159.347656 280.660156 159.378906 280.371094 159.433594 C 280.082031 159.492188 279.800781 159.578125 279.527344 159.691406 C 279.253906 159.804688 278.996094 159.941406 278.75 160.105469 C 278.503906 160.269531 278.277344 160.457031 278.066406 160.664062 C 277.859375 160.871094 277.671875 161.097656 277.507812 161.34375 C 277.34375 161.589844 277.207031 161.847656 277.09375 162.121094 C 276.980469 162.394531 276.894531 162.675781 276.835938 162.964844 C 276.777344 163.253906 276.75 163.542969 276.75 163.839844 C 276.75 164.132812 276.777344 164.425781 276.835938 164.714844 C 276.894531 165.003906 276.980469 165.285156 277.09375 165.558594 C 277.207031 165.832031 277.34375 166.089844 277.507812 166.335938 C 277.671875 166.578125 277.859375 166.804688 278.066406 167.015625 C 278.277344 167.222656 278.503906 167.410156 278.75 167.574219 C 278.996094 167.738281 279.253906 167.875 279.527344 167.988281 C 279.800781 168.101562 280.082031 168.1875 280.371094 168.242188 C 280.660156 168.300781 280.953125 168.328125 281.25 168.328125 C 281.546875 168.328125 281.839844 168.300781 282.128906 168.242188 C 282.417969 168.1875 282.699219 168.101562 282.972656 167.988281 C 283.246094 167.875 283.503906 167.738281 283.75 167.574219 C 283.996094 167.410156 284.222656 167.222656 284.433594 167.015625 C 284.640625 166.804688 284.828125 166.578125 284.992188 166.335938 C 285.15625 166.089844 285.292969 165.832031 285.40625 165.558594 C 285.519531 165.285156 285.605469 165.003906 285.664062 164.714844 C 285.722656 164.425781 285.75 164.132812 285.75 163.839844 Z M 280.617188 162.910156 C 280.492188 162.996094 280.390625 163.101562 280.308594 163.226562 C 280.226562 163.347656 280.171875 163.484375 280.144531 163.632812 C 280.117188 163.777344 280.117188 163.921875 280.148438 164.070312 C 280.179688 164.214844 280.238281 164.347656 280.320312 164.472656 C 280.40625 164.59375 280.507812 164.699219 280.632812 164.777344 C 280.757812 164.859375 280.894531 164.914062 281.042969 164.941406 C 281.1875 164.96875 281.335938 164.96875 281.480469 164.9375 C 281.625 164.90625 281.761719 164.851562 281.882812 164.765625 L 344.382812 122.203125 C 344.507812 122.121094 344.609375 122.015625 344.691406 121.890625 C 344.769531 121.765625 344.824219 121.632812 344.851562 121.484375 C 344.878906 121.339844 344.878906 121.195312 344.847656 121.046875 C 344.816406 120.902344 344.761719 120.769531 344.675781 120.644531 C 344.59375 120.523438 344.488281 120.421875 344.363281 120.339844 C 344.238281 120.257812 344.105469 120.203125 343.957031 120.175781 C 343.8125 120.148438 343.664062 120.148438 343.519531 120.179688 C 343.375 120.210938 343.238281 120.265625 343.117188 120.347656 Z M 348.25 121.277344 C 348.25 120.980469 348.222656 120.691406 348.164062 120.402344 C 348.105469 120.113281 348.019531 119.832031 347.90625 119.558594 C 347.792969 119.285156 347.65625 119.027344 347.492188 118.78125 C 347.328125 118.535156 347.140625 118.308594 346.933594 118.101562 C 346.722656 117.894531 346.496094 117.707031 346.25 117.542969 C 346.003906 117.378906 345.746094 117.242188 345.472656 117.128906 C 345.199219 117.015625 344.917969 116.929688 344.628906 116.871094 C 344.335938 116.816406 344.046875 116.785156 343.75 116.785156 C 343.453125 116.785156 343.160156 116.816406 342.871094 116.871094 C 342.582031 116.929688 342.300781 117.015625 342.027344 117.128906 C 341.753906 117.242188 341.496094 117.378906 341.25 117.542969 C 341.003906 117.707031 340.777344 117.894531 340.566406 118.101562 C 340.359375 118.308594 340.171875 118.535156 340.007812 118.78125 C 339.84375 119.027344 339.707031 119.285156 339.59375 119.558594 C 339.480469 119.832031 339.394531 120.113281 339.335938 120.402344 C 339.277344 120.691406 339.25 120.980469 339.25 121.277344 C 339.25 121.570312 339.277344 121.863281 339.335938 122.152344 C 339.394531 122.441406 339.480469 122.722656 339.59375 122.996094 C 339.707031 123.269531 339.84375 123.527344 340.007812 123.773438 C 340.171875 124.015625 340.359375 124.242188 340.566406 124.453125 C 340.777344 124.660156 341.003906 124.847656 341.25 125.011719 C 341.496094 125.175781 341.753906 125.3125 342.027344 125.425781 C 342.300781 125.539062 342.582031 125.625 342.871094 125.679688 C 343.160156 125.738281 343.453125 125.765625 343.75 125.765625 C 344.046875 125.765625 344.335938 125.738281 344.628906 125.679688 C 344.917969 125.625 345.199219 125.539062 345.472656 125.425781 C 345.746094 125.3125 346.003906 125.175781 346.25 125.011719 C 346.496094 124.847656 346.722656 124.660156 346.933594 124.453125 C 347.140625 124.242188 347.328125 124.015625 347.492188 123.773438 C 347.65625 123.527344 347.792969 123.269531 347.90625 122.996094 C 348.019531 122.722656 348.105469 122.441406 348.164062 122.152344 C 348.222656 121.863281 348.25 121.570312 348.25 121.277344 Z M 348.25 121.277344 " fill-opacity="1" fill-rule="nonzero"/><g fill="#ffffff" fill-opacity="1"><g transform="translate(11.320316, 224.718201)"><g><path d="M 37.84375 -75.90625 C 35.34375 -75.757812 33.539062 -75.460938 32.4375 -75.015625 C 31.332031 -74.578125 30.578125 -73.734375 30.171875 -72.484375 C 29.765625 -71.234375 29.5625 -69.210938 29.5625 -66.421875 L 29.5625 -11.6875 C 29.5625 -8.894531 29.765625 -6.875 30.171875 -5.625 C 30.578125 -4.375 31.332031 -3.523438 32.4375 -3.078125 C 33.539062 -2.640625 35.34375 -2.347656 37.84375 -2.203125 L 37.84375 0 C 33.875 -0.21875 28.320312 -0.328125 21.1875 -0.328125 C 13.3125 -0.328125 7.5 -0.21875 3.75 0 L 3.75 -2.203125 C 6.175781 -2.347656 7.957031 -2.640625 9.09375 -3.078125 C 10.238281 -3.523438 11.015625 -4.375 11.421875 -5.625 C 11.828125 -6.875 12.03125 -8.894531 12.03125 -11.6875 L 12.03125 -66.421875 C 12.03125 -69.210938 11.828125 -71.234375 11.421875 -72.484375 C 11.015625 -73.734375 10.238281 -74.578125 9.09375 -75.015625 C 7.957031 -75.460938 6.175781 -75.757812 3.75 -75.90625 L 3.75 -78.109375 C 7.5 -77.890625 13.3125 -77.78125 21.1875 -77.78125 C 28.320312 -77.78125 33.875 -77.890625 37.84375 -78.109375 Z M 37.84375 -75.90625 "/></g></g></g><g fill="#ffffff" fill-opacity="1"><g transform="translate(52.805124, 224.718201)"><g><path d="M 98.640625 -75.90625 C 96.128906 -75.757812 94.320312 -75.460938 93.21875 -75.015625 C 92.125 -74.578125 91.375 -73.734375 90.96875 -72.484375 C 90.5625 -71.234375 90.359375 -69.210938 90.359375 -66.421875 L 90.359375 -11.6875 C 90.359375 -8.894531 90.5625 -6.875 90.96875 -5.625 C 91.375 -4.375 92.144531 -3.523438 93.28125 -3.078125 C 94.425781 -2.640625 96.210938 -2.347656 98.640625 -2.203125 L 98.640625 0 C 94.585938 -0.21875 88.8125 -0.328125 81.3125 -0.328125 C 73.4375 -0.328125 67.625 -0.21875 63.875 0 L 63.875 -2.203125 C 66.53125 -2.347656 68.460938 -2.640625 69.671875 -3.078125 C 70.890625 -3.523438 71.71875 -4.375 72.15625 -5.625 C 72.59375 -6.875 72.8125 -8.894531 72.8125 -11.6875 L 72.8125 -69.390625 L 46.234375 0.109375 L 44.46875 0.109375 L 14.671875 -70.9375 L 14.671875 -18.09375 C 14.671875 -13.75 14.890625 -10.566406 15.328125 -8.546875 C 15.773438 -6.523438 16.734375 -5.054688 18.203125 -4.140625 C 19.671875 -3.222656 22.0625 -2.578125 25.375 -2.203125 L 25.375 0 C 22.507812 -0.21875 18.535156 -0.328125 13.453125 -0.328125 C 9.410156 -0.328125 6.210938 -0.21875 3.859375 0 L 3.859375 -2.203125 C 6.285156 -2.578125 8.066406 -3.203125 9.203125 -4.078125 C 10.347656 -4.960938 11.125 -6.359375 11.53125 -8.265625 C 11.9375 -10.179688 12.140625 -13.015625 12.140625 -16.765625 L 12.140625 -66.421875 C 12.140625 -69.210938 11.9375 -71.234375 11.53125 -72.484375 C 11.125 -73.734375 10.347656 -74.578125 9.203125 -75.015625 C 8.066406 -75.460938 6.285156 -75.757812 3.859375 -75.90625 L 3.859375 -78.109375 C 6.210938 -77.890625 9.410156 -77.78125 13.453125 -77.78125 C 20.222656 -77.78125 26.035156 -77.890625 30.890625 -78.109375 L 53.171875 -24.375 L 73.484375 -77.78125 L 81.3125 -77.78125 C 88.8125 -77.78125 94.585938 -77.890625 98.640625 -78.109375 Z M 98.640625 -75.90625 "/></g></g></g><g fill="#ffffff" fill-opacity="1"><g transform="translate(155.082842, 224.718201)"><g><path d="M 29.5625 -31.546875 L 29.5625 -12.359375 C 29.5625 -9.410156 29.875 -7.253906 30.5 -5.890625 C 31.125 -4.535156 32.226562 -3.632812 33.8125 -3.1875 C 35.394531 -2.75 37.914062 -2.492188 41.375 -2.421875 L 41.375 0 C 32.320312 -0.21875 25.59375 -0.328125 21.1875 -0.328125 C 17.507812 -0.328125 12.875 -0.253906 7.28125 -0.109375 L 3.75 0 L 3.75 -2.203125 C 6.175781 -2.347656 7.957031 -2.640625 9.09375 -3.078125 C 10.238281 -3.523438 11.015625 -4.375 11.421875 -5.625 C 11.828125 -6.875 12.03125 -8.894531 12.03125 -11.6875 L 12.03125 -66.421875 C 12.03125 -69.210938 11.828125 -71.234375 11.421875 -72.484375 C 11.015625 -73.734375 10.238281 -74.578125 9.09375 -75.015625 C 7.957031 -75.460938 6.175781 -75.757812 3.75 -75.90625 L 3.75 -78.109375 C 7.5 -77.890625 13.085938 -77.78125 20.515625 -77.78125 L 32.765625 -77.890625 C 34.234375 -77.960938 35.925781 -78 37.84375 -78 C 47.769531 -78 55.34375 -76.03125 60.5625 -72.09375 C 65.789062 -68.164062 68.40625 -62.890625 68.40625 -56.265625 C 68.40625 -52.222656 67.375 -48.34375 65.3125 -44.625 C 63.25 -40.914062 59.769531 -37.804688 54.875 -35.296875 C 49.988281 -32.796875 43.503906 -31.546875 35.421875 -31.546875 Z M 36.40625 -75.90625 C 34.414062 -75.90625 32.960938 -75.644531 32.046875 -75.125 C 31.128906 -74.613281 30.484375 -73.695312 30.109375 -72.375 C 29.742188 -71.050781 29.5625 -69.066406 29.5625 -66.421875 L 29.5625 -33.765625 L 34.3125 -33.765625 C 40.269531 -33.765625 44.390625 -35.675781 46.671875 -39.5 C 48.953125 -43.320312 50.09375 -48.503906 50.09375 -55.046875 C 50.09375 -62.179688 49.039062 -67.441406 46.9375 -70.828125 C 44.84375 -74.210938 41.332031 -75.90625 36.40625 -75.90625 Z M 36.40625 -75.90625 "/></g></g></g><g fill="#ffffff" fill-opacity="1"><g transform="translate(225.805608, 224.718201)"><g><path d="M 67.40625 -9.265625 C 68.363281 -6.835938 69.46875 -5.070312 70.71875 -3.96875 C 71.96875 -2.863281 73.179688 -2.273438 74.359375 -2.203125 L 74.359375 0 C 69.941406 -0.21875 64.351562 -0.328125 57.59375 -0.328125 C 50.09375 -0.328125 44.503906 -0.21875 40.828125 0 L 40.828125 -2.203125 C 43.617188 -2.347656 45.601562 -2.695312 46.78125 -3.25 C 47.957031 -3.800781 48.546875 -4.773438 48.546875 -6.171875 C 48.546875 -7.503906 48.101562 -9.269531 47.21875 -11.46875 L 40.59375 -29.5625 L 16.546875 -29.5625 L 13.6875 -21.953125 C 11.625 -16.660156 10.59375 -12.578125 10.59375 -9.703125 C 10.59375 -6.984375 11.421875 -5.085938 13.078125 -4.015625 C 14.734375 -2.953125 17.175781 -2.347656 20.40625 -2.203125 L 20.40625 0 C 15.40625 -0.21875 10.847656 -0.328125 6.734375 -0.328125 C 3.347656 -0.328125 0.550781 -0.21875 -1.65625 0 L -1.65625 -2.203125 C 1.945312 -2.867188 5.109375 -6.734375 7.828125 -13.796875 L 32.984375 -78.328125 C 33.796875 -78.253906 35.082031 -78.21875 36.84375 -78.21875 C 38.613281 -78.21875 39.863281 -78.253906 40.59375 -78.328125 Z M 39.828125 -31.78125 L 28.90625 -61.5625 L 17.4375 -31.78125 Z M 39.828125 -31.78125 "/></g></g></g><g fill="#ffffff" fill-opacity="1"><g transform="translate(299.397019, 224.718201)"><g><path d="M 31.328125 -79.546875 C 35.148438 -79.546875 38.203125 -79.175781 40.484375 -78.4375 C 42.765625 -77.707031 45.082031 -76.644531 47.4375 -75.25 C 48.25 -74.800781 48.96875 -74.429688 49.59375 -74.140625 C 50.21875 -73.847656 50.75 -73.703125 51.1875 -73.703125 C 51.851562 -73.703125 52.367188 -74.085938 52.734375 -74.859375 C 53.097656 -75.628906 53.394531 -76.859375 53.625 -78.546875 L 56.15625 -78.546875 C 55.789062 -73.617188 55.609375 -65.238281 55.609375 -53.40625 L 53.0625 -53.40625 C 52.769531 -57.375 51.867188 -61.160156 50.359375 -64.765625 C 48.859375 -68.367188 46.726562 -71.289062 43.96875 -73.53125 C 41.207031 -75.78125 37.988281 -76.90625 34.3125 -76.90625 C 30.707031 -76.90625 27.78125 -75.890625 25.53125 -73.859375 C 23.289062 -71.835938 22.171875 -69.097656 22.171875 -65.640625 C 22.171875 -63.066406 22.722656 -60.820312 23.828125 -58.90625 C 24.929688 -57 26.472656 -55.253906 28.453125 -53.671875 C 30.441406 -52.085938 33.5 -49.9375 37.625 -47.21875 L 41.15625 -44.796875 C 45.488281 -41.921875 48.90625 -39.414062 51.40625 -37.28125 C 53.914062 -35.15625 55.957031 -32.675781 57.53125 -29.84375 C 59.113281 -27.007812 59.90625 -23.71875 59.90625 -19.96875 C 59.90625 -15.257812 58.691406 -11.304688 56.265625 -8.109375 C 53.835938 -4.910156 50.546875 -2.5 46.390625 -0.875 C 42.234375 0.738281 37.617188 1.546875 32.546875 1.546875 C 28.429688 1.546875 25.007812 1.175781 22.28125 0.4375 C 19.5625 -0.289062 17.0625 -1.28125 14.78125 -2.53125 C 13.164062 -3.5625 11.914062 -4.078125 11.03125 -4.078125 C 10.375 -4.078125 9.859375 -3.691406 9.484375 -2.921875 C 9.117188 -2.148438 8.828125 -0.921875 8.609375 0.765625 L 6.0625 0.765625 C 6.363281 -3.859375 6.515625 -13.785156 6.515625 -29.015625 L 9.046875 -29.015625 C 9.554688 -20.773438 11.394531 -14.097656 14.5625 -8.984375 C 17.726562 -3.878906 22.582031 -1.328125 29.125 -1.328125 C 33.09375 -1.328125 36.363281 -2.390625 38.9375 -4.515625 C 41.519531 -6.648438 42.8125 -9.707031 42.8125 -13.6875 C 42.8125 -17.800781 41.484375 -21.328125 38.828125 -24.265625 C 36.179688 -27.210938 31.992188 -30.523438 26.265625 -34.203125 C 21.847656 -37.066406 18.3125 -39.566406 15.65625 -41.703125 C 13.007812 -43.835938 10.84375 -46.359375 9.15625 -49.265625 C 7.46875 -52.171875 6.625 -55.535156 6.625 -59.359375 C 6.625 -63.765625 7.742188 -67.492188 9.984375 -70.546875 C 12.222656 -73.609375 15.21875 -75.875 18.96875 -77.34375 C 22.726562 -78.8125 26.847656 -79.546875 31.328125 -79.546875 Z M 31.328125 -79.546875 "/></g></g></g></svg>