<svg xmlns="http://www.w3.org/2000/svg" xmlns:xlink="http://www.w3.org/1999/xlink" width="500" zoomAndPan="magnify" viewBox="0 0 375 374.999991" height="500" preserveAspectRatio="xMidYMid meet" version="1.0"><defs><filter x="0%" y="0%" width="100%" height="100%" id="id1"><feColorMatrix values="0 0 0 0 1 0 0 0 0 1 0 0 0 0 1 0 0 0 1 0" color-interpolation-filters="sRGB"/></filter><g/><clipPath id="id2"><path d="M 0 98.300781 L 178 98.300781 L 178 276.800781 L 0 276.800781 Z M 0 98.300781 " clip-rule="nonzero"/></clipPath><clipPath id="id3"><path d="M 197 98.300781 L 375 98.300781 L 375 276.800781 L 197 276.800781 Z M 197 98.300781 " clip-rule="nonzero"/></clipPath><clipPath id="id4"><path d="M 98 98.300781 L 277 98.300781 L 277 276.800781 L 98 276.800781 Z M 98 98.300781 " clip-rule="nonzero"/></clipPath><mask id="id5"><g filter="url(#id1)"><rect x="-37.5" width="450" fill="#000000" y="-37.499999" height="449.999989" fill-opacity="0.498"/></g></mask><clipPath id="id6"><path d="M 1 0.519531 L 81 0.519531 L 81 148.839844 L 1 148.839844 Z M 1 0.519531 " clip-rule="nonzero"/></clipPath><clipPath id="id7"><rect x="0" width="82" y="0" height="149"/></clipPath><mask id="id8"><g filter="url(#id1)"><rect x="-37.5" width="450" fill="#000000" y="-37.499999" height="449.999989" fill-opacity="0.498"/></g></mask><clipPath id="id9"><path d="M 0.0390625 0.519531 L 79.71875 0.519531 L 79.71875 148.839844 L 0.0390625 148.839844 Z M 0.0390625 0.519531 " clip-rule="nonzero"/></clipPath><clipPath id="id10"><rect x="0" width="80" y="0" height="149"/></clipPath></defs><g clip-path="url(#id2)"><path fill="#ad795b" d="M 88.882812 98.613281 C 137.976562 98.613281 177.765625 138.429688 177.765625 187.550781 C 177.765625 236.671875 137.976562 276.488281 88.882812 276.488281 C 39.789062 276.488281 0 236.671875 0 187.550781 C 0 138.429688 39.789062 98.613281 88.882812 98.613281 Z M 88.882812 98.613281 " fill-opacity="1" fill-rule="nonzero"/></g><g clip-path="url(#id3)"><path fill="#3c2115" d="M 286.117188 98.613281 C 335.210938 98.613281 375 138.429688 375 187.550781 C 375 236.671875 335.210938 276.488281 286.117188 276.488281 C 237.023438 276.488281 197.234375 236.671875 197.234375 187.550781 C 197.234375 138.429688 237.023438 98.613281 286.117188 98.613281 Z M 286.117188 98.613281 " fill-opacity="1" fill-rule="nonzero"/></g><g clip-path="url(#id4)"><path fill="#6d412a" d="M 187.523438 98.613281 C 236.617188 98.613281 276.410156 138.429688 276.410156 187.550781 C 276.410156 236.671875 236.617188 276.488281 187.523438 276.488281 C 138.433594 276.488281 98.589844 236.671875 98.589844 187.550781 C 98.589844 138.429688 138.433594 98.613281 187.523438 98.613281 Z M 187.523438 98.613281 " fill-opacity="1" fill-rule="nonzero"/></g><g mask="url(#id5)"><g transform="matrix(1, 0, 0, 1, 97, 113)"><g clip-path="url(#id7)"><g clip-path="url(#id6)"><path fill="#ad795b" d="M 41.179688 0.539062 C 65.042969 16.472656 80.765625 43.691406 80.765625 74.550781 C 80.765625 105.410156 65.042969 132.628906 41.179688 148.5625 C 17.316406 132.628906 1.589844 105.410156 1.589844 74.550781 C 1.589844 43.691406 17.316406 16.472656 41.179688 0.539062 Z M 41.179688 0.539062 " fill-opacity="1" fill-rule="nonzero"/></g></g></g></g><g mask="url(#id8)"><g transform="matrix(1, 0, 0, 1, 197, 113)"><g clip-path="url(#id10)"><g clip-path="url(#id9)"><path fill="#3c2115" d="M 39.820312 0.539062 C 63.683594 16.472656 79.410156 43.691406 79.410156 74.550781 C 79.410156 105.410156 63.683594 132.628906 39.820312 148.5625 C 15.957031 132.628906 0.234375 105.410156 0.234375 74.550781 C 0.234375 43.691406 15.957031 16.472656 39.820312 0.539062 Z M 39.820312 0.539062 " fill-opacity="1" fill-rule="nonzero"/></g></g></g></g><path fill="#ffde59" d="M 35.75 240.890625 C 35.75 240.597656 35.722656 240.304688 35.664062 240.015625 C 35.605469 239.726562 35.519531 239.445312 35.40625 239.171875 C 35.292969 238.898438 35.15625 238.640625 34.992188 238.394531 C 34.828125 238.152344 34.640625 237.925781 34.433594 237.714844 C 34.222656 237.507812 33.996094 237.320312 33.75 237.15625 C 33.503906 236.992188 33.246094 236.855469 32.972656 236.742188 C 32.699219 236.628906 32.417969 236.542969 32.128906 236.488281 C 31.839844 236.429688 31.546875 236.402344 31.25 236.402344 C 30.953125 236.402344 30.664062 236.429688 30.371094 236.488281 C 30.082031 236.542969 29.800781 236.628906 29.527344 236.742188 C 29.253906 236.855469 28.996094 236.992188 28.75 237.15625 C 28.503906 237.320312 28.277344 237.507812 28.066406 237.714844 C 27.859375 237.925781 27.671875 238.152344 27.507812 238.394531 C 27.34375 238.640625 27.207031 238.898438 27.09375 239.171875 C 26.980469 239.445312 26.894531 239.726562 26.835938 240.015625 C 26.777344 240.304688 26.75 240.597656 26.75 240.890625 C 26.75 241.1875 26.777344 241.476562 26.835938 241.765625 C 26.894531 242.054688 26.980469 242.335938 27.09375 242.609375 C 27.207031 242.882812 27.34375 243.140625 27.507812 243.386719 C 27.671875 243.628906 27.859375 243.859375 28.066406 244.066406 C 28.277344 244.273438 28.503906 244.460938 28.75 244.625 C 28.996094 244.789062 29.253906 244.925781 29.527344 245.039062 C 29.800781 245.152344 30.082031 245.238281 30.371094 245.296875 C 30.664062 245.351562 30.953125 245.382812 31.25 245.382812 C 31.546875 245.382812 31.839844 245.351562 32.128906 245.296875 C 32.417969 245.238281 32.699219 245.152344 32.972656 245.039062 C 33.246094 244.925781 33.503906 244.789062 33.75 244.625 C 33.996094 244.460938 34.222656 244.273438 34.433594 244.066406 C 34.640625 243.859375 34.828125 243.628906 34.992188 243.386719 C 35.15625 243.140625 35.292969 242.882812 35.40625 242.609375 C 35.519531 242.335938 35.605469 242.054688 35.664062 241.765625 C 35.722656 241.476562 35.75 241.1875 35.75 240.890625 Z M 30.378906 240.183594 C 30.285156 240.296875 30.214844 240.425781 30.171875 240.570312 C 30.128906 240.710938 30.117188 240.855469 30.132812 241.003906 C 30.148438 241.152344 30.191406 241.292969 30.261719 241.421875 C 30.332031 241.554688 30.425781 241.667969 30.542969 241.761719 C 30.65625 241.855469 30.785156 241.921875 30.929688 241.964844 C 31.070312 242.007812 31.21875 242.019531 31.363281 242.007812 C 31.511719 241.992188 31.652344 241.949219 31.785156 241.878906 C 31.914062 241.808594 32.027344 241.714844 32.121094 241.601562 L 94.621094 164.988281 C 94.714844 164.871094 94.785156 164.742188 94.828125 164.601562 C 94.871094 164.457031 94.882812 164.3125 94.867188 164.164062 C 94.851562 164.015625 94.808594 163.878906 94.738281 163.746094 C 94.667969 163.617188 94.574219 163.503906 94.457031 163.410156 C 94.34375 163.316406 94.214844 163.246094 94.070312 163.203125 C 93.929688 163.164062 93.785156 163.148438 93.636719 163.164062 C 93.488281 163.179688 93.347656 163.222656 93.214844 163.292969 C 93.085938 163.363281 92.972656 163.453125 92.878906 163.570312 Z M 30.378906 240.183594 " fill-opacity="1" fill-rule="nonzero"/><path fill="#ffde59" d="M 98.25 164.277344 C 98.25 163.984375 98.222656 163.691406 98.164062 163.402344 C 98.105469 163.113281 98.019531 162.832031 97.90625 162.558594 C 97.792969 162.289062 97.65625 162.027344 97.492188 161.785156 C 97.328125 161.539062 97.140625 161.3125 96.933594 161.101562 C 96.722656 160.894531 96.496094 160.707031 96.25 160.542969 C 96.003906 160.382812 95.746094 160.242188 95.472656 160.128906 C 95.199219 160.015625 94.917969 159.933594 94.628906 159.875 C 94.339844 159.816406 94.046875 159.789062 93.75 159.789062 C 93.453125 159.789062 93.160156 159.816406 92.871094 159.875 C 92.582031 159.933594 92.300781 160.015625 92.027344 160.128906 C 91.753906 160.242188 91.496094 160.382812 91.25 160.542969 C 91.003906 160.707031 90.777344 160.894531 90.566406 161.101562 C 90.359375 161.3125 90.171875 161.539062 90.007812 161.785156 C 89.84375 162.027344 89.707031 162.289062 89.59375 162.558594 C 89.480469 162.832031 89.394531 163.113281 89.335938 163.402344 C 89.277344 163.691406 89.25 163.984375 89.25 164.277344 C 89.25 164.574219 89.277344 164.867188 89.335938 165.15625 C 89.394531 165.445312 89.480469 165.722656 89.59375 165.996094 C 89.707031 166.269531 89.84375 166.527344 90.007812 166.773438 C 90.171875 167.019531 90.359375 167.246094 90.566406 167.453125 C 90.777344 167.664062 91.003906 167.847656 91.25 168.011719 C 91.496094 168.175781 91.753906 168.3125 92.027344 168.425781 C 92.300781 168.539062 92.582031 168.625 92.871094 168.683594 C 93.160156 168.738281 93.453125 168.769531 93.75 168.769531 C 94.046875 168.769531 94.339844 168.738281 94.628906 168.683594 C 94.917969 168.625 95.199219 168.539062 95.472656 168.425781 C 95.746094 168.3125 96.003906 168.175781 96.25 168.011719 C 96.496094 167.847656 96.722656 167.664062 96.933594 167.453125 C 97.140625 167.246094 97.328125 167.019531 97.492188 166.773438 C 97.65625 166.527344 97.792969 166.269531 97.90625 165.996094 C 98.019531 165.722656 98.105469 165.445312 98.164062 165.15625 C 98.222656 164.867188 98.25 164.574219 98.25 164.277344 Z M 94.425781 163.378906 C 94.304688 163.292969 94.175781 163.230469 94.03125 163.191406 C 93.886719 163.15625 93.738281 163.148438 93.59375 163.167969 C 93.445312 163.1875 93.308594 163.238281 93.179688 163.3125 C 93.050781 163.390625 92.941406 163.488281 92.851562 163.605469 C 92.761719 163.722656 92.699219 163.855469 92.664062 164 C 92.625 164.144531 92.617188 164.289062 92.636719 164.4375 C 92.660156 164.585938 92.707031 164.722656 92.78125 164.851562 C 92.859375 164.976562 92.957031 165.085938 93.074219 165.175781 L 155.574219 211.996094 C 155.695312 212.085938 155.824219 212.148438 155.96875 212.183594 C 156.113281 212.222656 156.261719 212.230469 156.410156 212.207031 C 156.554688 212.1875 156.695312 212.140625 156.824219 212.0625 C 156.953125 211.988281 157.058594 211.890625 157.148438 211.769531 C 157.238281 211.652344 157.300781 211.519531 157.339844 211.375 C 157.375 211.230469 157.386719 211.085938 157.363281 210.9375 C 157.34375 210.792969 157.292969 210.652344 157.21875 210.527344 C 157.140625 210.398438 157.042969 210.289062 156.925781 210.199219 Z M 94.425781 163.378906 " fill-opacity="1" fill-rule="nonzero"/><path fill="#ffde59" d="M 160.75 211.097656 C 160.75 210.800781 160.722656 210.511719 160.664062 210.222656 C 160.605469 209.933594 160.519531 209.652344 160.40625 209.378906 C 160.292969 209.105469 160.15625 208.847656 159.992188 208.601562 C 159.828125 208.355469 159.640625 208.128906 159.433594 207.921875 C 159.222656 207.714844 158.996094 207.527344 158.75 207.363281 C 158.503906 207.199219 158.246094 207.0625 157.972656 206.949219 C 157.699219 206.835938 157.417969 206.75 157.128906 206.691406 C 156.839844 206.636719 156.546875 206.605469 156.25 206.605469 C 155.953125 206.605469 155.660156 206.636719 155.371094 206.691406 C 155.082031 206.75 154.800781 206.835938 154.527344 206.949219 C 154.253906 207.0625 153.996094 207.199219 153.75 207.363281 C 153.503906 207.527344 153.277344 207.714844 153.066406 207.921875 C 152.859375 208.128906 152.671875 208.355469 152.507812 208.601562 C 152.34375 208.847656 152.207031 209.105469 152.09375 209.378906 C 151.980469 209.652344 151.894531 209.933594 151.835938 210.222656 C 151.777344 210.511719 151.75 210.800781 151.75 211.097656 C 151.75 211.390625 151.777344 211.683594 151.835938 211.972656 C 151.894531 212.261719 151.980469 212.542969 152.09375 212.816406 C 152.207031 213.089844 152.34375 213.347656 152.507812 213.59375 C 152.671875 213.835938 152.859375 214.0625 153.066406 214.273438 C 153.277344 214.480469 153.503906 214.667969 153.75 214.832031 C 153.996094 214.996094 154.253906 215.132812 154.527344 215.246094 C 154.800781 215.359375 155.082031 215.445312 155.371094 215.5 C 155.660156 215.558594 155.953125 215.585938 156.25 215.585938 C 156.546875 215.585938 156.839844 215.558594 157.128906 215.5 C 157.417969 215.445312 157.699219 215.359375 157.972656 215.246094 C 158.246094 215.132812 158.503906 214.996094 158.75 214.832031 C 158.996094 214.667969 159.222656 214.480469 159.433594 214.273438 C 159.640625 214.0625 159.828125 213.835938 159.992188 213.59375 C 160.15625 213.347656 160.292969 213.089844 160.40625 212.816406 C 160.519531 212.542969 160.605469 212.261719 160.664062 211.972656 C 160.722656 211.683594 160.75 211.390625 160.75 211.097656 Z M 155.421875 210.339844 C 155.320312 210.449219 155.246094 210.574219 155.195312 210.714844 C 155.144531 210.851562 155.121094 210.996094 155.128906 211.144531 C 155.136719 211.292969 155.167969 211.4375 155.234375 211.570312 C 155.296875 211.707031 155.382812 211.824219 155.492188 211.921875 C 155.601562 212.023438 155.726562 212.097656 155.867188 212.148438 C 156.007812 212.199219 156.152344 212.222656 156.300781 212.214844 C 156.449219 212.210938 156.589844 212.175781 156.726562 212.113281 C 156.859375 212.050781 156.980469 211.964844 157.078125 211.855469 L 219.578125 143.753906 C 219.679688 143.644531 219.757812 143.519531 219.808594 143.382812 C 219.859375 143.242188 219.878906 143.097656 219.875 142.949219 C 219.867188 142.800781 219.832031 142.65625 219.769531 142.523438 C 219.707031 142.386719 219.621094 142.269531 219.507812 142.167969 C 219.398438 142.070312 219.273438 141.992188 219.132812 141.941406 C 218.996094 141.890625 218.847656 141.871094 218.699219 141.875 C 218.550781 141.882812 218.410156 141.917969 218.273438 141.980469 C 218.140625 142.042969 218.019531 142.128906 217.921875 142.238281 Z M 155.421875 210.339844 " fill-opacity="1" fill-rule="nonzero"/><path fill="#ffde59" d="M 223.25 142.996094 C 223.25 142.703125 223.222656 142.410156 223.164062 142.121094 C 223.105469 141.832031 223.019531 141.550781 222.90625 141.277344 C 222.792969 141.007812 222.65625 140.746094 222.492188 140.503906 C 222.328125 140.257812 222.140625 140.03125 221.933594 139.820312 C 221.722656 139.613281 221.496094 139.425781 221.25 139.261719 C 221.003906 139.101562 220.746094 138.960938 220.472656 138.847656 C 220.199219 138.734375 219.917969 138.652344 219.628906 138.59375 C 219.339844 138.535156 219.046875 138.507812 218.75 138.507812 C 218.453125 138.507812 218.160156 138.535156 217.871094 138.59375 C 217.582031 138.652344 217.300781 138.734375 217.027344 138.847656 C 216.753906 138.960938 216.496094 139.101562 216.25 139.261719 C 216.003906 139.425781 215.777344 139.613281 215.566406 139.820312 C 215.359375 140.03125 215.171875 140.257812 215.007812 140.503906 C 214.84375 140.746094 214.707031 141.007812 214.59375 141.277344 C 214.480469 141.550781 214.394531 141.832031 214.335938 142.121094 C 214.277344 142.410156 214.25 142.703125 214.25 142.996094 C 214.25 143.292969 214.277344 143.585938 214.335938 143.875 C 214.394531 144.164062 214.480469 144.441406 214.59375 144.714844 C 214.707031 144.988281 214.84375 145.246094 215.007812 145.492188 C 215.171875 145.738281 215.359375 145.964844 215.566406 146.171875 C 215.777344 146.382812 216.003906 146.566406 216.25 146.730469 C 216.496094 146.894531 216.753906 147.03125 217.027344 147.144531 C 217.300781 147.257812 217.582031 147.34375 217.871094 147.402344 C 218.160156 147.457031 218.453125 147.488281 218.75 147.488281 C 219.046875 147.488281 219.339844 147.457031 219.628906 147.402344 C 219.917969 147.34375 220.199219 147.257812 220.472656 147.144531 C 220.746094 147.03125 221.003906 146.894531 221.25 146.730469 C 221.496094 146.566406 221.722656 146.382812 221.933594 146.171875 C 222.140625 145.964844 222.328125 145.738281 222.492188 145.492188 C 222.65625 145.246094 222.792969 144.988281 222.90625 144.714844 C 223.019531 144.441406 223.105469 144.164062 223.164062 143.875 C 223.222656 143.585938 223.25 143.292969 223.25 142.996094 Z M 219.113281 141.933594 C 218.972656 141.886719 218.828125 141.867188 218.679688 141.875 C 218.527344 141.886719 218.386719 141.925781 218.253906 141.988281 C 218.121094 142.054688 218.003906 142.144531 217.90625 142.253906 C 217.808594 142.367188 217.734375 142.492188 217.683594 142.632812 C 217.636719 142.777344 217.617188 142.921875 217.628906 143.070312 C 217.636719 143.21875 217.675781 143.359375 217.738281 143.492188 C 217.804688 143.625 217.894531 143.742188 218.007812 143.839844 C 218.117188 143.9375 218.246094 144.011719 218.386719 144.058594 L 280.886719 165.339844 C 281.027344 165.390625 281.171875 165.40625 281.320312 165.398438 C 281.46875 165.386719 281.609375 165.351562 281.746094 165.285156 C 281.878906 165.21875 281.996094 165.128906 282.09375 165.019531 C 282.191406 164.90625 282.265625 164.78125 282.3125 164.640625 C 282.359375 164.5 282.378906 164.355469 282.371094 164.207031 C 282.359375 164.058594 282.324219 163.917969 282.257812 163.785156 C 282.191406 163.648438 282.105469 163.535156 281.992188 163.4375 C 281.878906 163.335938 281.753906 163.265625 281.613281 163.214844 Z M 219.113281 141.933594 " fill-opacity="1" fill-rule="nonzero"/><path fill="#ffde59" d="M 285.75 164.277344 C 285.75 163.984375 285.722656 163.691406 285.664062 163.402344 C 285.605469 163.113281 285.519531 162.832031 285.40625 162.558594 C 285.292969 162.289062 285.15625 162.027344 284.992188 161.785156 C 284.828125 161.539062 284.640625 161.3125 284.433594 161.101562 C 284.222656 160.894531 283.996094 160.707031 283.75 160.542969 C 283.503906 160.382812 283.246094 160.242188 282.972656 160.128906 C 282.699219 160.015625 282.417969 159.933594 282.128906 159.875 C 281.839844 159.816406 281.546875 159.789062 281.25 159.789062 C 280.953125 159.789062 280.660156 159.816406 280.371094 159.875 C 280.082031 159.933594 279.800781 160.015625 279.527344 160.128906 C 279.253906 160.242188 278.996094 160.382812 278.75 160.542969 C 278.503906 160.707031 278.277344 160.894531 278.066406 161.101562 C 277.859375 161.3125 277.671875 161.539062 277.507812 161.785156 C 277.34375 162.027344 277.207031 162.289062 277.09375 162.558594 C 276.980469 162.832031 276.894531 163.113281 276.835938 163.402344 C 276.777344 163.691406 276.75 163.984375 276.75 164.277344 C 276.75 164.574219 276.777344 164.867188 276.835938 165.15625 C 276.894531 165.445312 276.980469 165.722656 277.09375 165.996094 C 277.207031 166.269531 277.34375 166.527344 277.507812 166.773438 C 277.671875 167.019531 277.859375 167.246094 278.066406 167.453125 C 278.277344 167.664062 278.503906 167.847656 278.75 168.011719 C 278.996094 168.175781 279.253906 168.3125 279.527344 168.425781 C 279.800781 168.539062 280.082031 168.625 280.371094 168.683594 C 280.660156 168.738281 280.953125 168.769531 281.25 168.769531 C 281.546875 168.769531 281.839844 168.738281 282.128906 168.683594 C 282.417969 168.625 282.699219 168.539062 282.972656 168.425781 C 283.246094 168.3125 283.503906 168.175781 283.75 168.011719 C 283.996094 167.847656 284.222656 167.664062 284.433594 167.453125 C 284.640625 167.246094 284.828125 167.019531 284.992188 166.773438 C 285.15625 166.527344 285.292969 166.269531 285.40625 165.996094 C 285.519531 165.722656 285.605469 165.445312 285.664062 165.15625 C 285.722656 164.867188 285.75 164.574219 285.75 164.277344 Z M 280.617188 163.351562 C 280.492188 163.433594 280.390625 163.539062 280.308594 163.664062 C 280.226562 163.789062 280.171875 163.925781 280.144531 164.070312 C 280.117188 164.214844 280.117188 164.363281 280.148438 164.507812 C 280.179688 164.652344 280.238281 164.789062 280.320312 164.910156 C 280.40625 165.035156 280.507812 165.136719 280.632812 165.21875 C 280.757812 165.300781 280.894531 165.355469 281.042969 165.382812 C 281.1875 165.410156 281.335938 165.40625 281.480469 165.378906 C 281.625 165.347656 281.761719 165.289062 281.882812 165.207031 L 344.382812 122.644531 C 344.507812 122.558594 344.609375 122.453125 344.691406 122.332031 C 344.769531 122.207031 344.824219 122.070312 344.851562 121.925781 C 344.878906 121.777344 344.878906 121.632812 344.847656 121.488281 C 344.816406 121.339844 344.761719 121.207031 344.675781 121.085938 C 344.59375 120.960938 344.488281 120.859375 344.363281 120.777344 C 344.238281 120.695312 344.105469 120.640625 343.957031 120.613281 C 343.8125 120.585938 343.664062 120.589844 343.519531 120.617188 C 343.375 120.648438 343.238281 120.707031 343.117188 120.789062 Z M 348.25 121.714844 C 348.25 121.421875 348.222656 121.128906 348.164062 120.839844 C 348.105469 120.550781 348.019531 120.269531 347.90625 119.996094 C 347.792969 119.726562 347.65625 119.464844 347.492188 119.222656 C 347.328125 118.976562 347.140625 118.75 346.933594 118.539062 C 346.722656 118.332031 346.496094 118.144531 346.25 117.980469 C 346.003906 117.820312 345.746094 117.679688 345.472656 117.566406 C 345.199219 117.453125 344.917969 117.371094 344.628906 117.3125 C 344.335938 117.253906 344.046875 117.226562 343.75 117.226562 C 343.453125 117.226562 343.160156 117.253906 342.871094 117.3125 C 342.582031 117.371094 342.300781 117.453125 342.027344 117.566406 C 341.753906 117.679688 341.496094 117.820312 341.25 117.980469 C 341.003906 118.144531 340.777344 118.332031 340.566406 118.539062 C 340.359375 118.75 340.171875 118.976562 340.007812 119.222656 C 339.84375 119.464844 339.707031 119.726562 339.59375 119.996094 C 339.480469 120.269531 339.394531 120.550781 339.335938 120.839844 C 339.277344 121.128906 339.25 121.421875 339.25 121.714844 C 339.25 122.011719 339.277344 122.304688 339.335938 122.59375 C 339.394531 122.882812 339.480469 123.160156 339.59375 123.433594 C 339.707031 123.707031 339.84375 123.964844 340.007812 124.210938 C 340.171875 124.457031 340.359375 124.683594 340.566406 124.890625 C 340.777344 125.101562 341.003906 125.285156 341.25 125.449219 C 341.496094 125.613281 341.753906 125.75 342.027344 125.863281 C 342.300781 125.976562 342.582031 126.0625 342.871094 126.121094 C 343.160156 126.175781 343.453125 126.207031 343.75 126.207031 C 344.046875 126.207031 344.335938 126.175781 344.628906 126.121094 C 344.917969 126.0625 345.199219 125.976562 345.472656 125.863281 C 345.746094 125.75 346.003906 125.613281 346.25 125.449219 C 346.496094 125.285156 346.722656 125.101562 346.933594 124.890625 C 347.140625 124.683594 347.328125 124.457031 347.492188 124.210938 C 347.65625 123.964844 347.792969 123.707031 347.90625 123.433594 C 348.019531 123.160156 348.105469 122.882812 348.164062 122.59375 C 348.222656 122.304688 348.25 122.011719 348.25 121.714844 Z M 348.25 121.714844 " fill-opacity="1" fill-rule="nonzero"/><g fill="#ffffff" fill-opacity="1"><g transform="translate(13.507044, 232.874985)"><g><path d="M 37.359375 -74.9375 C 34.890625 -74.789062 33.109375 -74.5 32.015625 -74.0625 C 30.929688 -73.625 30.1875 -72.785156 29.78125 -71.546875 C 29.382812 -70.316406 29.1875 -68.328125 29.1875 -65.578125 L 29.1875 -11.546875 C 29.1875 -8.785156 29.382812 -6.785156 29.78125 -5.546875 C 30.1875 -4.316406 30.929688 -3.484375 32.015625 -3.046875 C 33.109375 -2.609375 34.890625 -2.316406 37.359375 -2.171875 L 37.359375 0 C 33.441406 -0.21875 27.957031 -0.328125 20.90625 -0.328125 C 13.144531 -0.328125 7.410156 -0.21875 3.703125 0 L 3.703125 -2.171875 C 6.097656 -2.316406 7.859375 -2.609375 8.984375 -3.046875 C 10.109375 -3.484375 10.867188 -4.316406 11.265625 -5.546875 C 11.671875 -6.785156 11.875 -8.785156 11.875 -11.546875 L 11.875 -65.578125 C 11.875 -68.328125 11.671875 -70.316406 11.265625 -71.546875 C 10.867188 -72.785156 10.109375 -73.625 8.984375 -74.0625 C 7.859375 -74.5 6.097656 -74.789062 3.703125 -74.9375 L 3.703125 -77.109375 C 7.410156 -76.898438 13.144531 -76.796875 20.90625 -76.796875 C 27.957031 -76.796875 33.441406 -76.898438 37.359375 -77.109375 Z M 37.359375 -74.9375 "/></g></g></g><g fill="#ffffff" fill-opacity="1"><g transform="translate(54.458763, 232.874985)"><g><path d="M 97.375 -74.9375 C 94.90625 -74.789062 93.125 -74.5 92.03125 -74.0625 C 90.945312 -73.625 90.203125 -72.785156 89.796875 -71.546875 C 89.398438 -70.316406 89.203125 -68.328125 89.203125 -65.578125 L 89.203125 -11.546875 C 89.203125 -8.785156 89.398438 -6.785156 89.796875 -5.546875 C 90.203125 -4.316406 90.96875 -3.484375 92.09375 -3.046875 C 93.21875 -2.609375 94.976562 -2.316406 97.375 -2.171875 L 97.375 0 C 93.382812 -0.21875 87.6875 -0.328125 80.28125 -0.328125 C 72.507812 -0.328125 66.769531 -0.21875 63.0625 0 L 63.0625 -2.171875 C 65.675781 -2.316406 67.582031 -2.609375 68.78125 -3.046875 C 69.976562 -3.484375 70.796875 -4.316406 71.234375 -5.546875 C 71.671875 -6.785156 71.890625 -8.785156 71.890625 -11.546875 L 71.890625 -68.515625 L 45.640625 0.109375 L 43.890625 0.109375 L 14.484375 -70.03125 L 14.484375 -17.859375 C 14.484375 -13.578125 14.703125 -10.4375 15.140625 -8.4375 C 15.578125 -6.445312 16.519531 -4.992188 17.96875 -4.078125 C 19.425781 -3.171875 21.785156 -2.535156 25.046875 -2.171875 L 25.046875 0 C 22.210938 -0.21875 18.289062 -0.328125 13.28125 -0.328125 C 9.289062 -0.328125 6.132812 -0.21875 3.8125 0 L 3.8125 -2.171875 C 6.207031 -2.535156 7.96875 -3.15625 9.09375 -4.03125 C 10.21875 -4.90625 10.976562 -6.285156 11.375 -8.171875 C 11.78125 -10.054688 11.984375 -12.851562 11.984375 -16.5625 L 11.984375 -65.578125 C 11.984375 -68.328125 11.78125 -70.316406 11.375 -71.546875 C 10.976562 -72.785156 10.21875 -73.625 9.09375 -74.0625 C 7.96875 -74.5 6.207031 -74.789062 3.8125 -74.9375 L 3.8125 -77.109375 C 6.132812 -76.898438 9.289062 -76.796875 13.28125 -76.796875 C 19.96875 -76.796875 25.707031 -76.898438 30.5 -77.109375 L 52.5 -24.078125 L 72.546875 -76.796875 L 80.28125 -76.796875 C 87.6875 -76.796875 93.382812 -76.898438 97.375 -77.109375 Z M 97.375 -74.9375 "/></g></g></g><g fill="#ffffff" fill-opacity="1"><g transform="translate(155.422161, 232.874985)"><g><path d="M 29.1875 -31.15625 L 29.1875 -12.203125 C 29.1875 -9.296875 29.492188 -7.171875 30.109375 -5.828125 C 30.734375 -4.484375 31.820312 -3.59375 33.375 -3.15625 C 34.9375 -2.71875 37.425781 -2.460938 40.84375 -2.390625 L 40.84375 0 C 31.914062 -0.21875 25.269531 -0.328125 20.90625 -0.328125 C 17.28125 -0.328125 12.707031 -0.253906 7.1875 -0.109375 L 3.703125 0 L 3.703125 -2.171875 C 6.097656 -2.316406 7.859375 -2.609375 8.984375 -3.046875 C 10.109375 -3.484375 10.867188 -4.316406 11.265625 -5.546875 C 11.671875 -6.785156 11.875 -8.785156 11.875 -11.546875 L 11.875 -65.578125 C 11.875 -68.328125 11.671875 -70.316406 11.265625 -71.546875 C 10.867188 -72.785156 10.109375 -73.625 8.984375 -74.0625 C 7.859375 -74.5 6.097656 -74.789062 3.703125 -74.9375 L 3.703125 -77.109375 C 7.410156 -76.898438 12.929688 -76.796875 20.265625 -76.796875 L 32.34375 -76.90625 C 33.800781 -76.96875 35.472656 -77 37.359375 -77 C 47.160156 -77 54.640625 -75.054688 59.796875 -71.171875 C 64.953125 -67.296875 67.53125 -62.085938 67.53125 -55.546875 C 67.53125 -51.554688 66.515625 -47.726562 64.484375 -44.0625 C 62.453125 -40.394531 59.019531 -37.328125 54.1875 -34.859375 C 49.351562 -32.390625 42.945312 -31.15625 34.96875 -31.15625 Z M 35.9375 -74.9375 C 33.976562 -74.9375 32.546875 -74.679688 31.640625 -74.171875 C 30.734375 -73.660156 30.097656 -72.75 29.734375 -71.4375 C 29.367188 -70.132812 29.1875 -68.179688 29.1875 -65.578125 L 29.1875 -33.328125 L 33.875 -33.328125 C 39.757812 -33.328125 43.828125 -35.210938 46.078125 -38.984375 C 48.328125 -42.765625 49.453125 -47.890625 49.453125 -54.359375 C 49.453125 -61.398438 48.414062 -66.585938 46.34375 -69.921875 C 44.269531 -73.265625 40.800781 -74.9375 35.9375 -74.9375 Z M 35.9375 -74.9375 "/></g></g></g><g fill="#ffffff" fill-opacity="1"><g transform="translate(225.236118, 232.874985)"><g><path d="M 66.546875 -9.15625 C 67.492188 -6.757812 68.582031 -5.015625 69.8125 -3.921875 C 71.050781 -2.828125 72.25 -2.242188 73.40625 -2.171875 L 73.40625 0 C 69.050781 -0.21875 63.535156 -0.328125 56.859375 -0.328125 C 49.453125 -0.328125 43.929688 -0.21875 40.296875 0 L 40.296875 -2.171875 C 43.054688 -2.316406 45.015625 -2.660156 46.171875 -3.203125 C 47.335938 -3.753906 47.921875 -4.71875 47.921875 -6.09375 C 47.921875 -7.40625 47.488281 -9.148438 46.625 -11.328125 L 40.078125 -29.1875 L 16.34375 -29.1875 L 13.5 -21.671875 C 11.46875 -16.441406 10.453125 -12.410156 10.453125 -9.578125 C 10.453125 -6.898438 11.269531 -5.03125 12.90625 -3.96875 C 14.539062 -2.914062 16.957031 -2.316406 20.15625 -2.171875 L 20.15625 0 C 15.21875 -0.21875 10.710938 -0.328125 6.640625 -0.328125 C 3.304688 -0.328125 0.546875 -0.21875 -1.640625 0 L -1.640625 -2.171875 C 1.921875 -2.828125 5.046875 -6.640625 7.734375 -13.609375 L 32.5625 -77.328125 C 33.363281 -77.253906 34.632812 -77.21875 36.375 -77.21875 C 38.125 -77.21875 39.359375 -77.253906 40.078125 -77.328125 Z M 39.328125 -31.375 L 28.53125 -60.78125 L 17.203125 -31.375 Z M 39.328125 -31.375 "/></g></g></g><g fill="#ffffff" fill-opacity="1"><g transform="translate(297.881857, 232.874985)"><g><path d="M 30.9375 -78.53125 C 34.707031 -78.53125 37.71875 -78.164062 39.96875 -77.4375 C 42.21875 -76.71875 44.507812 -75.664062 46.84375 -74.28125 C 47.632812 -73.84375 48.335938 -73.476562 48.953125 -73.1875 C 49.578125 -72.90625 50.109375 -72.765625 50.546875 -72.765625 C 51.191406 -72.765625 51.695312 -73.144531 52.0625 -73.90625 C 52.425781 -74.664062 52.71875 -75.878906 52.9375 -77.546875 L 55.4375 -77.546875 C 55.070312 -72.679688 54.890625 -64.40625 54.890625 -52.71875 L 52.390625 -52.71875 C 52.097656 -56.632812 51.207031 -60.375 49.71875 -63.9375 C 48.226562 -67.5 46.125 -70.382812 43.40625 -72.59375 C 40.6875 -74.8125 37.507812 -75.921875 33.875 -75.921875 C 30.3125 -75.921875 27.421875 -74.921875 25.203125 -72.921875 C 22.992188 -70.921875 21.890625 -68.21875 21.890625 -64.8125 C 21.890625 -62.269531 22.429688 -60.050781 23.515625 -58.15625 C 24.609375 -56.269531 26.132812 -54.546875 28.09375 -52.984375 C 30.0625 -51.429688 33.078125 -49.3125 37.140625 -46.625 L 40.625 -44.21875 C 44.90625 -41.382812 48.28125 -38.914062 50.75 -36.8125 C 53.21875 -34.707031 55.234375 -32.253906 56.796875 -29.453125 C 58.359375 -26.660156 59.140625 -23.414062 59.140625 -19.71875 C 59.140625 -15.070312 57.941406 -11.164062 55.546875 -8 C 53.148438 -4.84375 49.898438 -2.460938 45.796875 -0.859375 C 41.691406 0.734375 37.132812 1.53125 32.125 1.53125 C 28.0625 1.53125 24.6875 1.164062 22 0.4375 C 19.3125 -0.289062 16.84375 -1.269531 14.59375 -2.5 C 13 -3.519531 11.765625 -4.03125 10.890625 -4.03125 C 10.234375 -4.03125 9.722656 -3.648438 9.359375 -2.890625 C 9.003906 -2.128906 8.71875 -0.910156 8.5 0.765625 L 5.984375 0.765625 C 6.273438 -3.804688 6.421875 -13.609375 6.421875 -28.640625 L 8.9375 -28.640625 C 9.4375 -20.515625 11.25 -13.925781 14.375 -8.875 C 17.5 -3.832031 22.289062 -1.3125 28.75 -1.3125 C 32.675781 -1.3125 35.910156 -2.363281 38.453125 -4.46875 C 40.992188 -6.570312 42.265625 -9.582031 42.265625 -13.5 C 42.265625 -17.570312 40.957031 -21.054688 38.34375 -23.953125 C 35.726562 -26.859375 31.585938 -30.128906 25.921875 -33.765625 C 21.566406 -36.597656 18.082031 -39.066406 15.46875 -41.171875 C 12.851562 -43.273438 10.707031 -45.757812 9.03125 -48.625 C 7.363281 -51.5 6.53125 -54.820312 6.53125 -58.59375 C 6.53125 -62.957031 7.632812 -66.644531 9.84375 -69.65625 C 12.0625 -72.664062 15.023438 -74.894531 18.734375 -76.34375 C 22.441406 -77.800781 26.507812 -78.53125 30.9375 -78.53125 Z M 30.9375 -78.53125 "/></g></g></g></svg>