<svg xmlns="http://www.w3.org/2000/svg" xmlns:xlink="http://www.w3.org/1999/xlink" width="1123" zoomAndPan="magnify" viewBox="0 0 841.92 595.499987" height="794" preserveAspectRatio="xMidYMid meet" version="1.0"><defs><clipPath id="id1"><path d="M 0.3125 0 L 841.527344 0 L 841.527344 595 L 0.3125 595 Z M 0.3125 0 " clip-rule="nonzero"/></clipPath><clipPath id="id2"><path d="M 0.3125 0 L 841.527344 0 L 841.527344 594.824219 L 0.3125 594.824219 Z M 0.3125 0 " clip-rule="nonzero"/></clipPath><clipPath id="id3"><path d="M 568 0.1875 L 841.527344 0.1875 L 841.527344 420.460938 L 568 420.460938 Z M 568 0.1875 " clip-rule="nonzero"/></clipPath><clipPath id="id4"><path d="M 432.804688 0.1875 L 841.527344 0.1875 L 841.527344 215 L 432.804688 215 Z M 432.804688 0.1875 " clip-rule="nonzero"/></clipPath><clipPath id="id5"><path d="M 474 0.1875 L 819 0.1875 L 819 360 L 474 360 Z M 474 0.1875 " clip-rule="nonzero"/></clipPath><clipPath id="id6"><path d="M 609.226562 450 L 841.460938 450 L 841.460938 594.824219 L 609.226562 594.824219 Z M 609.226562 450 " clip-rule="nonzero"/></clipPath><clipPath id="id7"><path d="M 723 375.339844 L 841.460938 375.339844 L 841.460938 594.824219 L 723 594.824219 Z M 723 375.339844 " clip-rule="nonzero"/></clipPath><clipPath id="id8"><path d="M 642 398 L 841.460938 398 L 841.460938 588 L 642 588 Z M 642 398 " clip-rule="nonzero"/></clipPath><clipPath id="id9"><path d="M 0.425781 0 L 309.074219 0 L 309.074219 198 L 0.425781 198 Z M 0.425781 0 " clip-rule="nonzero"/></clipPath><clipPath id="id10"><path d="M 0.425781 0 L 158 0 L 158 297.132812 L 0.425781 297.132812 Z M 0.425781 0 " clip-rule="nonzero"/></clipPath><clipPath id="id11"><path d="M 0.425781 14 L 265 14 L 265 267 L 0.425781 267 Z M 0.425781 14 " clip-rule="nonzero"/></clipPath></defs><g clip-path="url(#id1)"><path fill="#ffffff" d="M 0.3125 0 L 841.605469 0 L 841.605469 602.316406 L 0.3125 602.316406 Z M 0.3125 0 " fill-opacity="1" fill-rule="nonzero"/><path fill="#ffffff" d="M 0.3125 0 L 841.605469 0 L 841.605469 594.824219 L 0.3125 594.824219 Z M 0.3125 0 " fill-opacity="1" fill-rule="nonzero"/></g><g clip-path="url(#id2)"><path fill="#ffffff" d="M 0.3125 0 L 841.605469 0 L 841.605469 594.824219 L 0.3125 594.824219 Z M 0.3125 0 " fill-opacity="1" fill-rule="nonzero"/><path fill="#ffffff" d="M 0.3125 0 L 841.605469 0 L 841.605469 594.824219 L 0.3125 594.824219 Z M 0.3125 0 " fill-opacity="1" fill-rule="nonzero"/></g><g clip-path="url(#id3)"><path fill="#c38063" d="M 841.871094 420.460938 C 801.632812 221.433594 729.472656 309.714844 689.996094 235.371094 C 650.519531 161.027344 718.507812 90.355469 568.316406 0.320312 L 841.871094 0.320312 Z M 841.871094 420.460938 " fill-opacity="1" fill-rule="evenodd"/></g><g clip-path="url(#id4)"><path fill="#ffbc82" d="M 841.871094 146.101562 C 729.621094 99.898438 684.804688 243.636719 595.402344 209.082031 C 506.019531 174.503906 563.3125 65.515625 432.808594 0.320312 L 841.871094 0.320312 Z M 841.871094 146.101562 " fill-opacity="1" fill-rule="evenodd"/></g><g clip-path="url(#id5)"><path fill="#c38063" d="M 818.0625 339.894531 C 789.796875 356.558594 755.035156 362.800781 713.789062 358.625 C 657.171875 352.910156 650.972656 309.40625 644.054688 260.671875 C 637.730469 216.203125 630.738281 167.140625 579.882812 141.707031 C 525.738281 114.625 494.71875 86.355469 481.667969 53.691406 C 475.003906 36.984375 473 19.289062 475.019531 0.1875 L 481.539062 0.277344 C 479.550781 18.015625 481.257812 34.304688 487.328125 49.515625 C 499.601562 80.246094 529.539062 107.195312 582.097656 133.484375 C 636.371094 160.609375 643.714844 212.246094 650.378906 259.023438 C 656.796875 304.261719 662.554688 344.6875 714.242188 349.894531 C 754.023438 353.898438 787.480469 348.058594 814.621094 332.378906 C 814.621094 332.378906 818.082031 339.785156 818.0625 339.894531 Z M 818.0625 339.894531 " fill-opacity="1" fill-rule="nonzero"/></g><g clip-path="url(#id6)"><path fill="#c38063" d="M 609.230469 600.90625 C 719.203125 578.71875 670.425781 538.925781 711.503906 517.160156 C 752.582031 495.390625 791.632812 532.882812 841.386719 450.0625 L 841.386719 600.90625 Z M 609.230469 600.90625 " fill-opacity="1" fill-rule="evenodd"/></g><g clip-path="url(#id7)"><path fill="#ffbc82" d="M 760.832031 600.90625 C 786.363281 539.011719 706.9375 514.296875 726.03125 465 C 745.136719 415.710938 805.359375 447.304688 841.386719 375.339844 L 841.386719 600.90625 Z M 760.832031 600.90625 " fill-opacity="1" fill-rule="evenodd"/></g><g clip-path="url(#id8)"><path fill="#c38063" d="M 653.746094 587.777344 C 644.539062 572.191406 641.089844 553.023438 643.398438 530.277344 C 646.558594 499.058594 670.59375 495.640625 697.523438 491.824219 C 722.09375 488.339844 749.207031 484.484375 763.257812 456.441406 C 778.222656 426.582031 793.84375 409.480469 811.894531 402.28125 C 821.125 398.609375 830.902344 397.503906 841.457031 398.617188 L 841.410156 402.210938 C 831.605469 401.113281 822.605469 402.054688 814.203125 405.402344 C 797.222656 412.171875 782.328125 428.679688 767.804688 457.664062 C 752.8125 487.589844 724.28125 491.640625 698.433594 495.3125 C 673.4375 498.851562 651.101562 502.027344 648.222656 530.527344 C 646.011719 552.464844 649.238281 570.914062 657.902344 585.878906 C 657.902344 585.878906 653.808594 587.789062 653.75 587.777344 Z M 653.746094 587.777344 " fill-opacity="1" fill-rule="nonzero"/></g><g clip-path="url(#id9)"><path fill="#c38063" d="M 309.070312 -3.140625 C 162.910156 26.394531 227.742188 79.363281 173.148438 108.34375 C 118.550781 137.320312 66.648438 87.414062 0.527344 197.660156 L 0.527344 -3.140625 Z M 309.070312 -3.140625 " fill-opacity="1" fill-rule="evenodd"/></g><g clip-path="url(#id10)"><path fill="#ffbc82" d="M 107.589844 -3.140625 C 73.65625 79.253906 179.214844 112.152344 153.839844 177.777344 C 128.445312 243.390625 48.410156 201.332031 0.527344 297.128906 L 0.527344 -3.140625 Z M 107.589844 -3.140625 " fill-opacity="1" fill-rule="evenodd"/></g><g clip-path="url(#id11)"><path fill="#c38063" d="M 249.90625 14.335938 C 262.144531 35.085938 266.730469 60.597656 263.660156 90.878906 C 259.464844 132.433594 227.515625 136.984375 191.726562 142.066406 C 159.070312 146.707031 123.039062 151.839844 104.359375 189.171875 C 84.472656 228.917969 63.714844 251.683594 39.722656 261.265625 C 27.453125 266.15625 14.460938 267.628906 0.429688 266.144531 L 0.496094 261.359375 C 13.523438 262.820312 25.484375 261.566406 36.65625 257.109375 C 59.222656 248.097656 79.015625 226.125 98.324219 187.542969 C 118.242188 147.703125 156.164062 142.3125 190.515625 137.425781 C 223.738281 132.710938 253.425781 128.484375 257.25 90.542969 C 260.191406 61.34375 255.902344 36.78125 244.386719 16.863281 C 244.386719 16.863281 249.824219 14.320312 249.90625 14.335938 Z M 249.90625 14.335938 " fill-opacity="1" fill-rule="nonzero"/></g></svg>