<svg xmlns="http://www.w3.org/2000/svg" xmlns:xlink="http://www.w3.org/1999/xlink" width="480" zoomAndPan="magnify" viewBox="0 0 360 359.999987" height="480" preserveAspectRatio="xMidYMid meet" version="1.0"><defs><clipPath id="id1"><path d="M 243 2.347656 L 360 2.347656 L 360 182.347656 L 243 182.347656 Z M 243 2.347656 " clip-rule="nonzero"/></clipPath><clipPath id="id2"><path d="M 185.273438 2.347656 L 360 2.347656 L 360 95 L 185.273438 95 Z M 185.273438 2.347656 " clip-rule="nonzero"/></clipPath><clipPath id="id3"><path d="M 203 2.347656 L 351 2.347656 L 351 157 L 203 157 Z M 203 2.347656 " clip-rule="nonzero"/></clipPath><clipPath id="id4"><path d="M 0 177.847656 L 116 177.847656 L 116 360 L 0 360 Z M 0 177.847656 " clip-rule="nonzero"/></clipPath></defs><rect x="-36" width="432" fill="#ffffff" y="-35.999999" height="431.999984" fill-opacity="1"/><rect x="-36" width="432" fill="#ffffff" y="-35.999999" height="431.999984" fill-opacity="1"/><rect x="-36" width="432" fill="#ffffff" y="-35.999999" height="431.999984" fill-opacity="1"/><rect x="-36" width="432" fill="#ffffff" y="-35.999999" height="431.999984" fill-opacity="1"/><g clip-path="url(#id1)"><path fill="#3c2115" d="M 360.269531 182.34375 C 343.058594 97.105469 312.1875 134.914062 295.300781 103.074219 C 278.410156 71.234375 307.496094 40.964844 243.246094 2.402344 L 360.269531 2.402344 Z M 360.269531 182.34375 " fill-opacity="1" fill-rule="evenodd"/></g><g clip-path="url(#id2)"><path fill="#6d412a" d="M 360.269531 64.839844 C 312.25 45.050781 293.078125 106.613281 254.832031 91.8125 C 216.59375 77.003906 241.105469 30.328125 185.277344 2.402344 L 360.269531 2.402344 Z M 360.269531 64.839844 " fill-opacity="1" fill-rule="evenodd"/></g><g clip-path="url(#id3)"><path fill="#3c2115" d="M 350.085938 147.839844 C 337.992188 154.976562 323.121094 157.648438 305.476562 155.859375 C 281.257812 153.414062 278.605469 134.78125 275.644531 113.910156 C 272.941406 94.863281 269.949219 73.851562 248.191406 62.957031 C 225.03125 51.359375 211.761719 39.253906 206.175781 25.261719 C 203.328125 18.109375 202.46875 10.527344 203.335938 2.347656 L 206.121094 2.386719 C 205.273438 9.984375 206.003906 16.960938 208.597656 23.472656 C 213.851562 36.636719 226.65625 48.179688 249.140625 59.4375 C 272.359375 71.054688 275.5 93.167969 278.351562 113.203125 C 281.097656 132.578125 283.558594 149.890625 305.671875 152.121094 C 322.6875 153.835938 337.003906 151.335938 348.613281 144.621094 C 348.613281 144.621094 350.09375 147.792969 350.085938 147.839844 Z M 350.085938 147.839844 " fill-opacity="1" fill-rule="nonzero"/></g><g clip-path="url(#id4)"><path fill="#3c2115" d="M -3.171875 177.847656 C 14.253906 264.152344 45.507812 225.871094 62.605469 258.109375 C 79.703125 290.347656 50.257812 320.992188 115.308594 360.039062 L -3.171875 360.039062 Z M -3.171875 177.847656 " fill-opacity="1" fill-rule="evenodd"/></g><path fill="#6d412a" d="M -3.171875 296.820312 C 45.441406 316.855469 64.855469 254.523438 103.574219 269.511719 C 142.289062 284.503906 117.472656 331.765625 174 360.039062 L -3.171875 360.039062 Z M -3.171875 296.820312 " fill-opacity="1" fill-rule="evenodd"/><path fill="#3c2115" d="M 7.136719 212.78125 C 19.382812 205.558594 34.4375 202.851562 52.300781 204.660156 C 76.820312 207.140625 79.507812 226.003906 82.503906 247.136719 C 85.242188 266.421875 88.269531 287.695312 110.296875 298.726562 C 133.75 310.46875 147.183594 322.726562 152.835938 336.894531 C 155.722656 344.136719 156.589844 351.8125 155.714844 360.09375 L 152.894531 360.054688 C 153.753906 352.363281 153.015625 345.300781 150.386719 338.703125 C 145.070312 325.378906 132.101562 313.691406 109.339844 302.292969 C 85.832031 290.527344 82.652344 268.136719 79.765625 247.851562 C 76.984375 228.234375 74.492188 210.707031 52.105469 208.445312 C 34.875 206.710938 20.382812 209.242188 8.628906 216.042969 C 8.628906 216.042969 7.128906 212.832031 7.136719 212.785156 Z M 7.136719 212.78125 " fill-opacity="1" fill-rule="nonzero"/></svg>