<svg xmlns="http://www.w3.org/2000/svg" xmlns:xlink="http://www.w3.org/1999/xlink" width="4535" zoomAndPan="magnify" viewBox="0 0 3401.25 2267.999971" height="3024" preserveAspectRatio="xMidYMid meet" version="1.0"><defs><clipPath id="id1"><path d="M 2189 801 L 3400.5 801 L 3400.5 2266 L 2189 2266 Z M 2189 801 " clip-rule="nonzero"/></clipPath><clipPath id="id2"><path d="M 730 1494 L 1970 1494 L 1970 2267.75 L 730 2267.75 Z M 730 1494 " clip-rule="nonzero"/></clipPath><clipPath id="id3"><path d="M 394.21875 2462.566406 L 1085.050781 1142.484375 L 2282.890625 1769.34375 L 1592.058594 3089.425781 Z M 394.21875 2462.566406 " clip-rule="nonzero"/></clipPath><clipPath id="id4"><path d="M 394.21875 2462.566406 L 1085.050781 1142.484375 L 2282.890625 1769.34375 L 1592.058594 3089.425781 Z M 394.21875 2462.566406 " clip-rule="nonzero"/></clipPath><clipPath id="id5"><path d="M 1612 1964 L 1983 1964 L 1983 2267.75 L 1612 2267.75 Z M 1612 1964 " clip-rule="nonzero"/></clipPath><clipPath id="id6"><path d="M 2055.113281 1356.300781 L 3401.09375 2133.808594 L 2758.984375 3245.394531 L 1413.003906 2467.886719 Z M 2055.113281 1356.300781 " clip-rule="nonzero"/></clipPath><clipPath id="id7"><path d="M 2055.113281 1356.300781 L 3401.09375 2133.808594 L 2758.984375 3245.394531 L 1413.003906 2467.886719 Z M 2055.113281 1356.300781 " clip-rule="nonzero"/></clipPath><clipPath id="id8"><path d="M 1917 2140 L 2288 2140 L 2288 2267.75 L 1917 2267.75 Z M 1917 2140 " clip-rule="nonzero"/></clipPath><clipPath id="id9"><path d="M 2055.113281 1356.300781 L 3401.09375 2133.808594 L 2758.984375 3245.394531 L 1413.003906 2467.886719 Z M 2055.113281 1356.300781 " clip-rule="nonzero"/></clipPath><clipPath id="id10"><path d="M 2055.113281 1356.300781 L 3401.09375 2133.808594 L 2758.984375 3245.394531 L 1413.003906 2467.886719 Z M 2055.113281 1356.300781 " clip-rule="nonzero"/></clipPath><clipPath id="id11"><path d="M 2831 1965 L 3202 1965 L 3202 2267.75 L 2831 2267.75 Z M 2831 1965 " clip-rule="nonzero"/></clipPath><clipPath id="id12"><path d="M 2055.113281 1356.300781 L 3401.09375 2133.808594 L 2758.984375 3245.394531 L 1413.003906 2467.886719 Z M 2055.113281 1356.300781 " clip-rule="nonzero"/></clipPath><clipPath id="id13"><path d="M 2055.113281 1356.300781 L 3401.09375 2133.808594 L 2758.984375 3245.394531 L 1413.003906 2467.886719 Z M 2055.113281 1356.300781 " clip-rule="nonzero"/></clipPath><clipPath id="id14"><path d="M 2526 2140 L 2897 2140 L 2897 2267.75 L 2526 2267.75 Z M 2526 2140 " clip-rule="nonzero"/></clipPath><clipPath id="id15"><path d="M 2055.113281 1356.300781 L 3401.09375 2133.808594 L 2758.984375 3245.394531 L 1413.003906 2467.886719 Z M 2055.113281 1356.300781 " clip-rule="nonzero"/></clipPath><clipPath id="id16"><path d="M 2055.113281 1356.300781 L 3401.09375 2133.808594 L 2758.984375 3245.394531 L 1413.003906 2467.886719 Z M 2055.113281 1356.300781 " clip-rule="nonzero"/></clipPath><clipPath id="id17"><path d="M 2222 1964 L 2592 1964 L 2592 2267.75 L 2222 2267.75 Z M 2222 1964 " clip-rule="nonzero"/></clipPath><clipPath id="id18"><path d="M 2055.113281 1356.300781 L 3401.09375 2133.808594 L 2758.984375 3245.394531 L 1413.003906 2467.886719 Z M 2055.113281 1356.300781 " clip-rule="nonzero"/></clipPath><clipPath id="id19"><path d="M 2055.113281 1356.300781 L 3401.09375 2133.808594 L 2758.984375 3245.394531 L 1413.003906 2467.886719 Z M 2055.113281 1356.300781 " clip-rule="nonzero"/></clipPath><clipPath id="id20"><path d="M 2526 1788 L 2897 1788 L 2897 2110 L 2526 2110 Z M 2526 1788 " clip-rule="nonzero"/></clipPath><clipPath id="id21"><path d="M 2055.113281 1356.300781 L 3401.09375 2133.808594 L 2758.984375 3245.394531 L 1413.003906 2467.886719 Z M 2055.113281 1356.300781 " clip-rule="nonzero"/></clipPath><clipPath id="id22"><path d="M 2055.113281 1356.300781 L 3401.09375 2133.808594 L 2758.984375 3245.394531 L 1413.003906 2467.886719 Z M 2055.113281 1356.300781 " clip-rule="nonzero"/></clipPath><clipPath id="id23"><path d="M 0 0.25 L 2558.4375 0.25 L 2558.4375 1599.648438 L 0 1599.648438 Z M 0 0.25 " clip-rule="nonzero"/></clipPath><clipPath id="id24"><path d="M 393 0.25 L 764 0.25 L 764 171 L 393 171 Z M 393 0.25 " clip-rule="nonzero"/></clipPath><clipPath id="id25"><path d="M 531.207031 -933.886719 L 1877.1875 -156.378906 L 1235.078125 955.207031 L -110.902344 177.703125 Z M 531.207031 -933.886719 " clip-rule="nonzero"/></clipPath><clipPath id="id26"><path d="M 531.207031 -933.886719 L 1877.1875 -156.378906 L 1235.078125 955.207031 L -110.902344 177.703125 Z M 531.207031 -933.886719 " clip-rule="nonzero"/></clipPath><clipPath id="id27"><path d="M 88 26 L 459 26 L 459 347 L 88 347 Z M 88 26 " clip-rule="nonzero"/></clipPath><clipPath id="id28"><path d="M 531.207031 -933.886719 L 1877.1875 -156.378906 L 1235.078125 955.207031 L -110.902344 177.703125 Z M 531.207031 -933.886719 " clip-rule="nonzero"/></clipPath><clipPath id="id29"><path d="M 531.207031 -933.886719 L 1877.1875 -156.378906 L 1235.078125 955.207031 L -110.902344 177.703125 Z M 531.207031 -933.886719 " clip-rule="nonzero"/></clipPath><clipPath id="id30"><path d="M 227.058594 -54.058594 L 504.769531 106.363281 L 319.613281 426.902344 L 41.898438 266.480469 Z M 227.058594 -54.058594 " clip-rule="nonzero"/></clipPath><clipPath id="id31"><path d="M 227.058594 -54.058594 L 504.769531 106.363281 L 319.832031 426.519531 L 42.117188 266.101562 Z M 227.058594 -54.058594 " clip-rule="nonzero"/></clipPath><clipPath id="id32"><path d="M 698 26 L 1069 26 L 1069 347 L 698 347 Z M 698 26 " clip-rule="nonzero"/></clipPath><clipPath id="id33"><path d="M 531.207031 -933.886719 L 1877.1875 -156.378906 L 1235.078125 955.207031 L -110.902344 177.703125 Z M 531.207031 -933.886719 " clip-rule="nonzero"/></clipPath><clipPath id="id34"><path d="M 531.207031 -933.886719 L 1877.1875 -156.378906 L 1235.078125 955.207031 L -110.902344 177.703125 Z M 531.207031 -933.886719 " clip-rule="nonzero"/></clipPath><clipPath id="id35"><path d="M 393 202 L 764 202 L 764 523 L 393 523 Z M 393 202 " clip-rule="nonzero"/></clipPath><clipPath id="id36"><path d="M 531.207031 -933.886719 L 1877.1875 -156.378906 L 1235.078125 955.207031 L -110.902344 177.703125 Z M 531.207031 -933.886719 " clip-rule="nonzero"/></clipPath><clipPath id="id37"><path d="M 531.207031 -933.886719 L 1877.1875 -156.378906 L 1235.078125 955.207031 L -110.902344 177.703125 Z M 531.207031 -933.886719 " clip-rule="nonzero"/></clipPath><clipPath id="id38"><path d="M 531.769531 121.960938 L 810.035156 282.699219 L 624.875 603.238281 L 346.609375 442.5 Z M 531.769531 121.960938 " clip-rule="nonzero"/></clipPath><clipPath id="id39"><path d="M 531.769531 121.960938 L 810.035156 282.699219 L 625.09375 602.855469 L 346.832031 442.117188 Z M 531.769531 121.960938 " clip-rule="nonzero"/></clipPath><clipPath id="id40"><path d="M 1307 26 L 1678 26 L 1678 347 L 1307 347 Z M 1307 26 " clip-rule="nonzero"/></clipPath><clipPath id="id41"><path d="M 531.207031 -933.886719 L 1877.1875 -156.378906 L 1235.078125 955.207031 L -110.902344 177.703125 Z M 531.207031 -933.886719 " clip-rule="nonzero"/></clipPath><clipPath id="id42"><path d="M 531.207031 -933.886719 L 1877.1875 -156.378906 L 1235.078125 955.207031 L -110.902344 177.703125 Z M 531.207031 -933.886719 " clip-rule="nonzero"/></clipPath><clipPath id="id43"><path d="M 1445.976562 -53.628906 L 1724.242188 107.109375 L 1539.082031 427.648438 L 1260.816406 266.910156 Z M 1445.976562 -53.628906 " clip-rule="nonzero"/></clipPath><clipPath id="id44"><path d="M 1445.976562 -53.628906 L 1723.847656 106.882812 L 1538.6875 427.421875 L 1260.816406 266.910156 Z M 1445.976562 -53.628906 " clip-rule="nonzero"/></clipPath><clipPath id="id45"><path d="M 1003 0.25 L 1373 0.25 L 1373 171 L 1003 171 Z M 1003 0.25 " clip-rule="nonzero"/></clipPath><clipPath id="id46"><path d="M 531.207031 -933.886719 L 1877.1875 -156.378906 L 1235.078125 955.207031 L -110.902344 177.703125 Z M 531.207031 -933.886719 " clip-rule="nonzero"/></clipPath><clipPath id="id47"><path d="M 531.207031 -933.886719 L 1877.1875 -156.378906 L 1235.078125 955.207031 L -110.902344 177.703125 Z M 531.207031 -933.886719 " clip-rule="nonzero"/></clipPath><clipPath id="id48"><path d="M 2817.011719 877 L 3187 877 L 3187 1198 L 2817.011719 1198 Z M 2817.011719 877 " clip-rule="nonzero"/></clipPath><clipPath id="id49"><path d="M 3121.671875 701.113281 L 3400.5 701.113281 L 3400.5 1022 L 3121.671875 1022 Z M 3121.671875 701.113281 " clip-rule="nonzero"/></clipPath><clipPath id="id50"><path d="M 3121 1053 L 3400.5 1053 L 3400.5 1374 L 3121 1374 Z M 3121 1053 " clip-rule="nonzero"/></clipPath><clipPath id="id51"><path d="M 3121 1405 L 3400.5 1405 L 3400.5 1726 L 3121 1726 Z M 3121 1405 " clip-rule="nonzero"/></clipPath><clipPath id="id52"><path d="M 2817.011719 1229 L 3187 1229 L 3187 1550 L 2817.011719 1550 Z M 2817.011719 1229 " clip-rule="nonzero"/></clipPath><clipPath id="id53"><path d="M 3130.714844 2146 L 3400.5 2146 L 3400.5 2267.75 L 3130.714844 2267.75 Z M 3130.714844 2146 " clip-rule="nonzero"/></clipPath><clipPath id="id54"><path d="M 0 203 L 154.855469 203 L 154.855469 524 L 0 524 Z M 0 203 " clip-rule="nonzero"/></clipPath><clipPath id="id55"><path d="M 0 0.25 L 154.855469 0.25 L 154.855469 172 L 0 172 Z M 0 0.25 " clip-rule="nonzero"/></clipPath><clipPath id="id56"><path d="M 0 1618 L 157.40625 1618 L 157.40625 1940 L 0 1940 Z M 0 1618 " clip-rule="nonzero"/></clipPath><clipPath id="id57"><path d="M 0 1266 L 157.40625 1266 L 157.40625 1588 L 0 1588 Z M 0 1266 " clip-rule="nonzero"/></clipPath><clipPath id="id58"><path d="M 2787 0.25 L 3158 0.25 L 3158 171 L 2787 171 Z M 2787 0.25 " clip-rule="nonzero"/></clipPath><clipPath id="id59"><path d="M 2924.945312 -933.886719 L 4270.925781 -156.378906 L 3628.816406 955.207031 L 2282.835938 177.703125 Z M 2924.945312 -933.886719 " clip-rule="nonzero"/></clipPath><clipPath id="id60"><path d="M 2924.945312 -933.886719 L 4270.925781 -156.378906 L 3628.816406 955.207031 L 2282.835938 177.703125 Z M 2924.945312 -933.886719 " clip-rule="nonzero"/></clipPath><clipPath id="id61"><path d="M 2482 26 L 2853 26 L 2853 347 L 2482 347 Z M 2482 26 " clip-rule="nonzero"/></clipPath><clipPath id="id62"><path d="M 2924.945312 -933.886719 L 4270.925781 -156.378906 L 3628.816406 955.207031 L 2282.835938 177.703125 Z M 2924.945312 -933.886719 " clip-rule="nonzero"/></clipPath><clipPath id="id63"><path d="M 2924.945312 -933.886719 L 4270.925781 -156.378906 L 3628.816406 955.207031 L 2282.835938 177.703125 Z M 2924.945312 -933.886719 " clip-rule="nonzero"/></clipPath><clipPath id="id64"><path d="M 2620.792969 -54.058594 L 2898.507812 106.363281 L 2713.347656 426.902344 L 2435.636719 266.480469 Z M 2620.792969 -54.058594 " clip-rule="nonzero"/></clipPath><clipPath id="id65"><path d="M 2620.792969 -54.058594 L 2898.507812 106.363281 L 2713.566406 426.519531 L 2435.855469 266.101562 Z M 2620.792969 -54.058594 " clip-rule="nonzero"/></clipPath><clipPath id="id66"><path d="M 3091 26 L 3400.5 26 L 3400.5 347 L 3091 347 Z M 3091 26 " clip-rule="nonzero"/></clipPath><clipPath id="id67"><path d="M 2924.945312 -933.886719 L 4270.925781 -156.378906 L 3628.816406 955.207031 L 2282.835938 177.703125 Z M 2924.945312 -933.886719 " clip-rule="nonzero"/></clipPath><clipPath id="id68"><path d="M 2924.945312 -933.886719 L 4270.925781 -156.378906 L 3628.816406 955.207031 L 2282.835938 177.703125 Z M 2924.945312 -933.886719 " clip-rule="nonzero"/></clipPath><clipPath id="id69"><path d="M 2787 202 L 3158 202 L 3158 523 L 2787 523 Z M 2787 202 " clip-rule="nonzero"/></clipPath><clipPath id="id70"><path d="M 2924.945312 -933.886719 L 4270.925781 -156.378906 L 3628.816406 955.207031 L 2282.835938 177.703125 Z M 2924.945312 -933.886719 " clip-rule="nonzero"/></clipPath><clipPath id="id71"><path d="M 2924.945312 -933.886719 L 4270.925781 -156.378906 L 3628.816406 955.207031 L 2282.835938 177.703125 Z M 2924.945312 -933.886719 " clip-rule="nonzero"/></clipPath><clipPath id="id72"><path d="M 2925.507812 121.960938 L 3203.769531 282.699219 L 3018.613281 603.238281 L 2740.347656 442.5 Z M 2925.507812 121.960938 " clip-rule="nonzero"/></clipPath><clipPath id="id73"><path d="M 2925.507812 121.960938 L 3203.769531 282.699219 L 3018.832031 602.855469 L 2740.566406 442.117188 Z M 2925.507812 121.960938 " clip-rule="nonzero"/></clipPath><clipPath id="id74"><path d="M 3396 0.25 L 3400.5 0.25 L 3400.5 171 L 3396 171 Z M 3396 0.25 " clip-rule="nonzero"/></clipPath><clipPath id="id75"><path d="M 2924.945312 -933.886719 L 4270.925781 -156.378906 L 3628.816406 955.207031 L 2282.835938 177.703125 Z M 2924.945312 -933.886719 " clip-rule="nonzero"/></clipPath><clipPath id="id76"><path d="M 2924.945312 -933.886719 L 4270.925781 -156.378906 L 3628.816406 955.207031 L 2282.835938 177.703125 Z M 2924.945312 -933.886719 " clip-rule="nonzero"/></clipPath><clipPath id="id77"><path d="M 591 2058 L 962 2058 L 962 2267.75 L 591 2267.75 Z M 591 2058 " clip-rule="nonzero"/></clipPath><clipPath id="id78"><path d="M 286.96875 1882.339844 L 656.699219 1882.339844 L 656.699219 2203.054688 L 286.96875 2203.054688 Z M 286.96875 1882.339844 " clip-rule="nonzero"/></clipPath><clipPath id="id79"><path d="M 286.96875 2234.238281 L 656.699219 2234.238281 L 656.699219 2267.75 L 286.96875 2267.75 Z M 286.96875 2234.238281 " clip-rule="nonzero"/></clipPath><clipPath id="id80"><path d="M 896 2234 L 1267 2234 L 1267 2267.75 L 896 2267.75 Z M 896 2234 " clip-rule="nonzero"/></clipPath></defs><g clip-path="url(#id1)"><path fill="#ffde59" d="M 2212.789062 2265.746094 C 2212.789062 2265.746094 2110.808594 2009.253906 2331.703125 1819.671875 C 2552.597656 1630.089844 2909.488281 1860.707031 3090.742188 1697.300781 C 3271.996094 1533.894531 2895.214844 1089.226562 3400.820312 801.75 L 3400.820312 2265.746094 Z M 2212.789062 2265.746094 " fill-opacity="1" fill-rule="nonzero"/></g><g clip-path="url(#id2)"><g clip-path="url(#id3)"><g clip-path="url(#id4)"><path fill="#ffde59" d="M 1177.707031 1544.957031 C 897.355469 1652.871094 675.671875 1924.417969 743.09375 2250.757812 C 832.863281 2685.464844 1165.625 2824.390625 1615.183594 2504.304688 C 2064.742188 2184.214844 1994.414062 1830.113281 1898.894531 1709.519531 C 1716.742188 1479.714844 1424.375 1449.625 1177.707031 1544.957031 Z M 1177.707031 1544.957031 " fill-opacity="1" fill-rule="nonzero"/></g></g></g><g clip-path="url(#id5)"><g clip-path="url(#id6)"><g clip-path="url(#id7)"><path fill="#cdac79" d="M 1889.941406 2284.808594 L 1982.40625 2124.738281 L 1940.828125 2052.710938 L 1889.953125 1964.597656 L 1729.722656 1964.527344 L 1705.035156 1964.515625 L 1612.574219 2124.578125 L 1705.027344 2284.730469 L 1889.941406 2284.808594 " fill-opacity="1" fill-rule="nonzero"/></g></g></g><g clip-path="url(#id8)"><g clip-path="url(#id9)"><g clip-path="url(#id10)"><path fill="#6d412a" d="M 2194.722656 2460.859375 L 2287.183594 2300.792969 L 2194.726562 2140.652344 L 2022.199219 2140.570312 L 2009.808594 2140.566406 L 1917.347656 2300.632812 L 2009.804688 2460.78125 L 2194.722656 2460.859375 " fill-opacity="1" fill-rule="nonzero"/></g></g></g><g clip-path="url(#id11)"><g clip-path="url(#id12)"><g clip-path="url(#id13)"><path fill="#cdac79" d="M 2924.140625 2285.246094 L 2949.871094 2285.269531 L 3109.054688 2285.324219 L 3201.515625 2125.261719 L 3109.066406 1965.121094 L 2924.144531 1965.039062 L 2831.683594 2125.101562 L 2913.796875 2267.339844 L 2924.140625 2285.246094 " fill-opacity="1" fill-rule="nonzero"/></g></g></g><g clip-path="url(#id14)"><g clip-path="url(#id15)"><g clip-path="url(#id16)"><path fill="#ad795b" d="M 2526.914062 2300.898438 L 2619.371094 2461.042969 L 2804.289062 2461.125 L 2896.75 2301.058594 L 2804.296875 2140.914062 L 2619.375 2140.832031 L 2526.914062 2300.898438 " fill-opacity="1" fill-rule="nonzero"/></g></g></g><g clip-path="url(#id17)"><g clip-path="url(#id18)"><g clip-path="url(#id19)"><path fill="#ad795b" d="M 2499.503906 2285.070312 L 2591.96875 2125.003906 L 2499.507812 1964.855469 L 2314.59375 1964.777344 L 2222.132812 2124.847656 L 2314.582031 2284.992188 L 2499.503906 2285.070312 " fill-opacity="1" fill-rule="nonzero"/></g></g></g><g clip-path="url(#id20)"><g clip-path="url(#id21)"><g clip-path="url(#id22)"><path fill="#6d412a" d="M 2804.289062 2109.273438 L 2896.746094 1949.210938 L 2804.292969 1789.066406 L 2619.375 1788.988281 L 2526.910156 1949.054688 L 2619.363281 2109.199219 L 2804.289062 2109.273438 " fill-opacity="1" fill-rule="nonzero"/></g></g></g><g clip-path="url(#id23)"><path fill="#ffde59" d="M 1083.671875 800.320312 C 1869.8125 825.5 2558.4375 0.675781 2558.4375 0.675781 L 0 0.675781 L 0 1599.308594 C 25.308594 1416.234375 555.828125 783.414062 1083.671875 800.320312 " fill-opacity="1" fill-rule="nonzero"/></g><g clip-path="url(#id24)"><g clip-path="url(#id25)"><g clip-path="url(#id26)"><path fill="#6d412a" d="M 670.816406 170.671875 L 763.277344 10.605469 L 670.820312 -149.535156 L 498.292969 -149.613281 L 485.902344 -149.621094 L 393.441406 10.445312 L 485.898438 170.59375 L 670.816406 170.671875 " fill-opacity="1" fill-rule="nonzero"/></g></g></g><g clip-path="url(#id27)"><g clip-path="url(#id28)"><g clip-path="url(#id29)"><g clip-path="url(#id30)"><g clip-path="url(#id31)"><path fill="#ad795b" d="M 88.65625 186.242188 L 160.441406 310.578125 L 181.113281 346.390625 L 366.035156 346.46875 L 458.496094 186.402344 L 366.039062 26.253906 L 181.117188 26.175781 L 88.65625 186.242188 " fill-opacity="1" fill-rule="nonzero"/></g></g></g></g></g><g clip-path="url(#id32)"><g clip-path="url(#id33)"><g clip-path="url(#id34)"><path fill="#cdac79" d="M 790.675781 26.433594 L 698.214844 186.496094 L 790.671875 346.648438 L 975.589844 346.722656 L 1068.050781 186.660156 L 975.597656 26.519531 L 790.675781 26.433594 " fill-opacity="1" fill-rule="nonzero"/></g></g></g><g clip-path="url(#id35)"><g clip-path="url(#id36)"><g clip-path="url(#id37)"><g clip-path="url(#id38)"><g clip-path="url(#id39)"><path fill="#ad795b" d="M 485.898438 202.230469 L 393.4375 362.296875 L 468.710938 492.6875 L 485.890625 522.445312 L 670.808594 522.519531 L 763.269531 362.457031 L 670.8125 202.304688 L 485.898438 202.230469 " fill-opacity="1" fill-rule="nonzero"/></g></g></g></g></g><g clip-path="url(#id40)"><g clip-path="url(#id41)"><g clip-path="url(#id42)"><g clip-path="url(#id43)"><g clip-path="url(#id44)"><path fill="#6d412a" d="M 1307.773438 186.769531 L 1400.238281 346.90625 L 1563.964844 346.984375 L 1585.152344 346.996094 L 1677.617188 186.925781 L 1593.925781 41.96875 L 1585.160156 26.777344 L 1400.238281 26.699219 L 1307.773438 186.769531 " fill-opacity="1" fill-rule="nonzero"/></g></g></g></g></g><g clip-path="url(#id45)"><g clip-path="url(#id46)"><g clip-path="url(#id47)"><path fill="#ad795b" d="M 1003.007812 10.714844 L 1095.464844 170.855469 L 1280.382812 170.941406 L 1372.847656 10.871094 L 1280.390625 -149.273438 L 1095.46875 -149.355469 L 1003.007812 10.714844 " fill-opacity="1" fill-rule="nonzero"/></g></g></g><g clip-path="url(#id48)"><path fill="#cdac79" d="M 3186.714844 1037.265625 L 3173.859375 1014.976562 L 3094.289062 877.109375 L 2909.4375 877.109375 L 2817.015625 1037.265625 L 2909.4375 1197.429688 L 3094.289062 1197.429688 L 3176.382812 1055.179688 L 3186.714844 1037.265625 " fill-opacity="1" fill-rule="nonzero"/></g><g clip-path="url(#id49)"><path fill="#6d412a" d="M 3398.964844 1021.4375 L 3491.382812 861.273438 L 3409.554688 719.457031 L 3398.964844 701.105469 L 3214.105469 701.105469 L 3130.445312 846.082031 L 3121.679688 861.273438 L 3214.109375 1021.4375 L 3398.964844 1021.4375 " fill-opacity="1" fill-rule="nonzero"/></g><g clip-path="url(#id50)"><path fill="#ad795b" d="M 3398.960938 1373.402344 L 3491.382812 1213.238281 L 3398.960938 1053.074219 L 3214.105469 1053.074219 L 3121.679688 1213.238281 L 3214.105469 1373.402344 L 3398.960938 1373.402344 " fill-opacity="1" fill-rule="nonzero"/></g><g clip-path="url(#id51)"><path fill="#ad795b" d="M 3398.960938 1405.054688 L 3214.109375 1405.054688 L 3121.679688 1565.21875 L 3214.109375 1725.375 L 3398.960938 1725.375 L 3491.390625 1565.21875 L 3398.960938 1405.054688 " fill-opacity="1" fill-rule="nonzero"/></g><g clip-path="url(#id52)"><path fill="#6d412a" d="M 3094.285156 1229.070312 L 2909.4375 1229.070312 L 2817.011719 1389.234375 L 2909.4375 1549.394531 L 3094.292969 1549.394531 L 3186.722656 1389.234375 L 3094.285156 1229.070312 " fill-opacity="1" fill-rule="nonzero"/></g><g clip-path="url(#id53)"><path fill="#cdac79" d="M 3500.417969 2306.25 L 3487.5625 2283.960938 L 3407.992188 2146.09375 L 3223.140625 2146.09375 L 3130.714844 2306.25 L 3223.140625 2466.414062 L 3407.992188 2466.414062 L 3490.085938 2324.164062 L 3500.417969 2306.25 " fill-opacity="1" fill-rule="nonzero"/></g><g clip-path="url(#id54)"><path fill="#cdac79" d="M -214.847656 363.394531 L -201.996094 385.683594 L -122.421875 523.550781 L 62.429688 523.550781 L 154.851562 363.394531 L 62.429688 203.230469 L -122.421875 203.230469 L -204.515625 345.480469 L -214.847656 363.394531 " fill-opacity="1" fill-rule="nonzero"/></g><g clip-path="url(#id55)"><path fill="#6d412a" d="M -122.417969 171.589844 L 62.429688 171.589844 L 154.855469 11.425781 L 62.429688 -148.734375 L -122.425781 -148.734375 L -214.855469 11.425781 L -122.417969 171.589844 " fill-opacity="1" fill-rule="nonzero"/></g><g clip-path="url(#id56)"><path fill="#cdac79" d="M -212.296875 1779.125 L -199.445312 1801.414062 L -119.871094 1939.28125 L 64.980469 1939.28125 L 157.402344 1779.125 L 64.980469 1618.960938 L -119.871094 1618.960938 L -201.964844 1761.210938 L -212.296875 1779.125 " fill-opacity="1" fill-rule="nonzero"/></g><g clip-path="url(#id57)"><path fill="#6d412a" d="M -119.867188 1587.320312 L 64.980469 1587.320312 L 157.40625 1427.15625 L 64.980469 1266.996094 L -119.875 1266.996094 L -212.304688 1427.15625 L -119.867188 1587.320312 " fill-opacity="1" fill-rule="nonzero"/></g><g clip-path="url(#id58)"><g clip-path="url(#id59)"><g clip-path="url(#id60)"><path fill="#6d412a" d="M 3064.554688 170.671875 L 3157.015625 10.605469 L 3064.558594 -149.535156 L 2892.03125 -149.613281 L 2879.636719 -149.621094 L 2787.175781 10.445312 L 2879.632812 170.59375 L 3064.554688 170.671875 " fill-opacity="1" fill-rule="nonzero"/></g></g></g><g clip-path="url(#id61)"><g clip-path="url(#id62)"><g clip-path="url(#id63)"><g clip-path="url(#id64)"><g clip-path="url(#id65)"><path fill="#ad795b" d="M 2482.394531 186.242188 L 2554.179688 310.578125 L 2574.851562 346.390625 L 2759.769531 346.46875 L 2852.230469 186.402344 L 2759.777344 26.253906 L 2574.855469 26.175781 L 2482.394531 186.242188 " fill-opacity="1" fill-rule="nonzero"/></g></g></g></g></g><g clip-path="url(#id66)"><g clip-path="url(#id67)"><g clip-path="url(#id68)"><path fill="#cdac79" d="M 3184.410156 26.433594 L 3091.949219 186.496094 L 3184.410156 346.648438 L 3369.328125 346.722656 L 3461.789062 186.660156 L 3369.332031 26.519531 L 3184.410156 26.433594 " fill-opacity="1" fill-rule="nonzero"/></g></g></g><g clip-path="url(#id69)"><g clip-path="url(#id70)"><g clip-path="url(#id71)"><g clip-path="url(#id72)"><g clip-path="url(#id73)"><path fill="#ad795b" d="M 2879.632812 202.230469 L 2787.171875 362.296875 L 2862.449219 492.6875 L 2879.628906 522.445312 L 3064.546875 522.519531 L 3157.007812 362.457031 L 3064.550781 202.304688 L 2879.632812 202.230469 " fill-opacity="1" fill-rule="nonzero"/></g></g></g></g></g><g clip-path="url(#id74)"><g clip-path="url(#id75)"><g clip-path="url(#id76)"><path fill="#ad795b" d="M 3396.742188 10.714844 L 3489.203125 170.855469 L 3674.121094 170.941406 L 3766.582031 10.871094 L 3674.125 -149.273438 L 3489.207031 -149.355469 L 3396.742188 10.714844 " fill-opacity="1" fill-rule="nonzero"/></g></g></g><path fill="#cdac79" d="M 684.0625 2027.03125 L 868.921875 2027.03125 L 910.492188 1955 L 961.34375 1866.875 L 881.257812 1728.089844 L 868.921875 1706.710938 L 684.070312 1706.710938 L 591.640625 1866.875 L 684.0625 2027.03125 " fill-opacity="1" fill-rule="nonzero"/><g clip-path="url(#id77)"><path fill="#6d412a" d="M 684.070312 2379.003906 L 868.921875 2379.003906 L 961.34375 2218.84375 L 875.113281 2069.410156 L 868.921875 2058.675781 L 684.070312 2058.675781 L 591.640625 2218.84375 L 684.070312 2379.003906 " fill-opacity="1" fill-rule="nonzero"/></g><g clip-path="url(#id78)"><path fill="#ad795b" d="M 379.394531 1882.691406 L 307.636719 2007.046875 L 286.964844 2042.859375 L 379.394531 2203.019531 L 564.246094 2203.019531 L 656.675781 2042.855469 L 564.246094 1882.691406 L 379.394531 1882.691406 " fill-opacity="1" fill-rule="nonzero"/></g><g clip-path="url(#id79)"><path fill="#ad795b" d="M 564.246094 2234.667969 L 379.394531 2234.667969 L 304.136719 2365.070312 L 286.964844 2394.832031 L 379.394531 2554.992188 L 564.246094 2554.992188 L 656.675781 2394.824219 L 564.246094 2234.667969 " fill-opacity="1" fill-rule="nonzero"/></g><g clip-path="url(#id80)"><path fill="#ad795b" d="M 988.738281 2554.992188 L 1173.589844 2554.992188 L 1266.015625 2394.824219 L 1173.589844 2234.667969 L 988.738281 2234.667969 L 896.308594 2394.824219 L 988.738281 2554.992188 " fill-opacity="1" fill-rule="nonzero"/></g></svg>